<?xml version="1.0" encoding="utf-8"?>
<!-- Generator: Adobe Illustrator 27.2.0, SVG Export Plug-In . SVG Version: 6.00 Build 0)  -->
<svg version="1.1" id="Capa_1" xmlns="http://www.w3.org/2000/svg" xmlns:xlink="http://www.w3.org/1999/xlink" x="0px" y="0px"
	 viewBox="0 0 50 50" style="enable-background:new 0 0 50 50;" xml:space="preserve">
<style type="text/css">
	.st0{fill:#FFFFFF;}
</style>
<path class="st0" d="M49.99,15.23c-0.01-1.72-1.02-2.72-2.73-2.73c-1.72-0.01-3.45,0-5.17,0c-1.61,0-2.65,0.75-2.86,2.06
	c-0.23,1.41,0.48,2.42,2.36,3.05c-0.52,0.42-0.88,0.69-1.22,1c-0.55,0.5-1.05,1.42-1.62,1.45c-0.67,0.04-1.14-0.94-1.7-1.47
	c-1.37-1.31-2.75-1.34-4.09-0.01c-1.66,1.65-3.31,3.32-4.97,4.97c-0.55,0.55-1.09,1.42-1.71,1.49c-0.47,0.05-1.06-0.93-1.59-1.45
	c-1.44-1.42-2.76-1.42-4.21,0.03c-2,2-4.02,3.99-5.99,6.02c-0.45,0.47-0.7,0.45-1.13-0.01c-1.19-1.25-2.42-2.45-3.65-3.66
	c-1.28-1.26-2.67-1.28-3.93-0.02c-1.62,1.6-3.23,3.22-4.83,4.83c-1.18,1.19-1.26,2.66-0.21,3.71c1.02,1.02,2.59,0.96,3.73-0.18
	c1.08-1.08,2.13-2.18,3.26-3.33c1.39,1.42,2.71,2.76,4.04,4.1c1.54,1.55,2.78,1.54,4.35-0.03c1.61-1.61,3.22-3.22,4.84-4.83
	c0.53-0.53,1.05-1.42,1.62-1.46c0.67-0.04,1.14,0.94,1.7,1.47c1.37,1.32,2.73,1.34,4.08,0.01c1.64-1.63,3.27-3.27,4.91-4.89
	c0.55-0.55,1.08-1.47,1.69-1.53c0.7-0.07,1.19,0.95,1.74,1.51c0.76,0.76,1.61,1.05,2.65,0.84c0.68-0.13,1.13-0.6,1.59-1.07
	c1.32-1.33,2.65-2.65,4.02-4.02c0.58,1.71,1.59,2.42,2.99,2.19c1.31-0.21,2.05-1.25,2.06-2.87C50,18.68,50,16.95,49.99,15.23z
	 M48.32,20.65c0,0.56-0.22,0.99-0.83,0.99c-0.59,0-0.84-0.4-0.83-0.98c0.01-0.42-0.01-0.85,0-1.27c0.02-0.48-0.04-0.92-0.54-1.14
	c-0.54-0.23-0.85,0.14-1.17,0.47c-1.75,1.75-3.5,3.5-5.25,5.24c-0.89,0.88-1.12,0.88-1.99,0.01c-0.62-0.62-1.26-1.23-1.86-1.87
	c-0.59-0.64-1.12-0.62-1.73-0.01c-2.27,2.29-4.55,4.56-6.83,6.83c-0.85,0.85-1.11,0.84-1.99-0.03c-0.55-0.55-1.1-1.1-1.66-1.65
	c-0.97-0.96-1.13-0.96-2.12,0.04c-2.19,2.18-4.37,4.37-6.56,6.55c-0.93,0.93-1.14,0.93-2.06,0.02c-1.43-1.42-2.87-2.84-4.27-4.29
	C8,28.92,7.47,28.9,6.83,29.56c-1.15,1.2-2.34,2.35-3.51,3.53c-0.43,0.44-0.91,0.73-1.41,0.17c-0.45-0.49-0.18-0.94,0.24-1.35
	c1.59-1.58,3.18-3.17,4.76-4.77c0.58-0.59,1.09-0.57,1.66,0.01c1.46,1.48,2.94,2.95,4.42,4.42c0.83,0.82,1.07,0.82,1.91-0.03
	c2.26-2.25,4.5-4.51,6.76-6.77c0.8-0.8,1.06-0.8,1.85-0.02c0.58,0.57,1.15,1.15,1.73,1.72c0.97,0.97,1.18,0.98,2.13,0.03
	c2.21-2.21,4.42-4.42,6.63-6.63c0.85-0.85,1.14-0.84,2,0.01c0.65,0.64,1.3,1.28,1.93,1.93c0.5,0.51,0.97,0.59,1.5,0.06
	c1.49-1.5,2.99-2.99,4.48-4.49c0.29-0.29,0.52-0.6,0.32-1.04c-0.18-0.41-0.52-0.55-0.95-0.54c-0.49,0.01-0.98,0-1.46,0
	c-0.58,0.01-0.98-0.25-0.97-0.84c0-0.6,0.44-0.82,1-0.82c0.91,0,1.82,0,2.73,0c0.91,0,1.82,0,2.73,0c0.69,0,1.01,0.33,1.01,1.02
	C48.32,17.01,48.32,18.83,48.32,20.65z M10.83,0C4.85,0,0,4.87,0,10.86c0.01,5.97,4.9,10.83,10.88,10.81
	c5.92-0.02,10.78-4.88,10.79-10.81C21.68,4.88,16.81,0,10.83,0z M10.76,19.98c-5.04-0.03-9.08-4.09-9.08-9.14
	c0-5.08,4.09-9.17,9.17-9.15c5.09,0.01,9.15,4.1,9.13,9.19C19.96,15.96,15.87,20.01,10.76,19.98z M48.32,38.83
	c0-2.83,0.01-5.66,0-8.49c-0.01-1.89-0.95-2.82-2.8-2.83c-1.24-0.01-2.47-0.01-3.71,0c-1.59,0.02-2.62,0.95-2.63,2.51
	c-0.03,5.82-0.03,11.64,0,17.46c0.01,1.55,1.07,2.49,2.64,2.51c1.2,0.01,2.41,0.01,3.61,0c1.93-0.01,2.87-0.93,2.88-2.87
	C48.33,44.36,48.32,41.6,48.32,38.83z M46.67,47.25c0,0.74-0.36,1.07-1.07,1.06c-1.24,0-2.47-0.01-3.71,0
	c-0.79,0-1.08-0.4-1.07-1.16c0.02-2.8,0.01-5.59,0.01-8.39c0-2.76,0-5.53,0-8.29c0-1.08,0.23-1.31,1.31-1.32
	c1.14-0.01,2.28,0,3.42,0c0.76,0,1.12,0.35,1.12,1.13C46.66,35.94,46.67,41.59,46.67,47.25z M35.82,35.19
	c-0.01-1.73-0.99-2.68-2.75-2.71c-1.2-0.02-2.4-0.02-3.61,0c-1.8,0.03-2.77,0.98-2.78,2.77c-0.02,1.98,0,3.96,0,5.94
	c0,2.05-0.02,4.09,0.01,6.14c0.02,1.67,1.03,2.63,2.7,2.65c1.23,0.01,2.47,0.01,3.7,0c1.73-0.01,2.72-0.97,2.73-2.71
	C35.84,43.25,35.84,39.22,35.82,35.19z M32.99,48.32c-1.17-0.02-2.34-0.02-3.51,0c-0.82,0.01-1.17-0.35-1.16-1.18
	c0.03-1.98,0.01-3.96,0.01-5.95c0-1.92,0.02-3.83-0.01-5.75c-0.02-0.89,0.29-1.33,1.24-1.29c1.17,0.05,2.34,0.03,3.51,0
	c0.79-0.02,1.11,0.35,1.11,1.12c-0.01,3.96-0.01,7.93,0,11.89C34.18,48.02,33.79,48.34,32.99,48.32z M23.32,43.84
	c0-1.2,0-2.41,0-3.61c0-0.07,0-0.13,0-0.2c-0.08-1.56-1.05-2.52-2.62-2.54c-1.3-0.02-2.6-0.02-3.9,0c-1.56,0.02-2.59,0.98-2.61,2.54
	c-0.04,2.47-0.04,4.94,0,7.41c0.02,1.56,1.05,2.52,2.61,2.54c1.27,0.02,2.54,0.01,3.81,0c1.69-0.01,2.68-0.96,2.72-2.64
	C23.35,46.18,23.32,45.01,23.32,43.84z M20.61,48.32c-1.24,0-2.47-0.01-3.71,0c-0.79,0.01-1.1-0.38-1.09-1.15
	c0.02-1.17,0.01-2.34,0.01-3.51c0-1.14,0.01-2.28,0-3.41c-0.01-0.74,0.34-1.08,1.06-1.08c1.24,0,2.47,0.01,3.71,0
	c0.71,0,1.09,0.31,1.08,1.05c-0.01,2.34-0.01,4.68,0,7.02C21.68,47.98,21.34,48.32,20.61,48.32z M10.82,44.52
	c0-0.94,0.03-1.89-0.01-2.83c-0.06-1.53-1-2.48-2.52-2.52c-1.36-0.04-2.73-0.04-4.09,0c-1.52,0.04-2.48,1-2.51,2.53
	c-0.04,1.92-0.04,3.84,0,5.75c0.03,1.56,1.05,2.51,2.62,2.53c1.3,0.02,2.6,0.02,3.9,0c1.56-0.02,2.56-0.98,2.61-2.54
	C10.85,46.47,10.82,45.5,10.82,44.52z M9.18,47.29c0,0.69-0.33,1.02-1.01,1.03c-1.27,0-2.54,0-3.8,0c-0.73,0-1.05-0.37-1.04-1.1
	c0.02-0.88,0-1.76,0-2.63c0-0.88,0.01-1.76,0-2.63c-0.01-0.77,0.32-1.15,1.11-1.14c1.2,0.01,2.41,0.02,3.61,0
	c0.77-0.01,1.14,0.32,1.14,1.11C9.17,43.71,9.17,45.5,9.18,47.29z M12.4,10.4c-0.37-0.13-0.75-0.15-0.73-0.71
	c0.04-0.93,0.01-1.87,0.01-2.86c0.81,0.15,1.37,0.58,1.93,1.02c0.42,0.33,0.86,0.31,1.2-0.11c0.32-0.39,0.21-0.79-0.13-1.13
	c-0.58-0.58-1.28-0.99-2.05-1.28c-0.47-0.18-0.93-0.25-1.2-0.83c-0.22-0.46-0.91-0.53-1.14-0.08C9.94,5.14,9.27,5.19,8.69,5.48
	C7.52,6.07,6.7,6.95,6.67,8.34c-0.03,1.15,0.51,2.19,1.58,2.44c1.8,0.42,1.9,1.57,1.74,3c-0.04,0.32-0.01,0.65-0.01,1.08
	c-0.76-0.2-1.3-0.53-1.8-0.95c-0.42-0.36-0.88-0.48-1.29-0.03c-0.47,0.52-0.19,0.96,0.24,1.33c0.54,0.47,1.15,0.84,1.83,1.09
	c0.5,0.19,0.97,0.29,1.28,0.88c0.26,0.49,0.94,0.47,1.21-0.04c0.27-0.51,0.66-0.62,1.11-0.79c1.85-0.67,2.81-2.34,2.28-3.94
	C14.46,11.23,13.46,10.77,12.4,10.4z M9.99,9.7C9.22,9.47,8.47,9.34,8.37,8.44C8.29,7.67,8.82,7.3,9.43,6.98
	c0.41-0.22,0.58-0.16,0.57,0.34C9.97,8.08,9.99,8.86,9.99,9.7z M13.3,13.36c-0.07,0.89-0.74,1.21-1.62,1.53
	c0-0.86,0.03-1.6-0.01-2.35c-0.02-0.51,0.13-0.65,0.59-0.42C12.81,12.38,13.37,12.64,13.3,13.36z"/>
</svg>
