<?xml version="1.0" encoding="utf-8"?>
<!-- Generator: Adobe Illustrator 27.2.0, SVG Export Plug-In . SVG Version: 6.00 Build 0)  -->
<svg version="1.1" id="Capa_1" xmlns="http://www.w3.org/2000/svg" xmlns:xlink="http://www.w3.org/1999/xlink" x="0px" y="0px"
	 viewBox="0 0 50 50" style="enable-background:new 0 0 50 50;" xml:space="preserve">
<style type="text/css">
	.st0{fill:#FFFFFF;}
</style>
<g>
	<path class="st0" d="M0.02,41.68c1.4,0,2.75,0,4.16,0c0-0.22,0-0.41,0-0.59c0-3.33,0-6.66,0-9.99c0-1.73,1.02-2.75,2.75-2.75
		c12.04,0,24.08,0,36.12,0c1.77,0,2.77,1.01,2.77,2.78c0,3.31,0,6.63,0,9.94c0,0.19,0,0.37,0,0.6c1.4,0,2.74,0,4.13,0
		c0.01,0.18,0.03,0.33,0.03,0.48c0,1.16,0,2.32,0,3.49c0,1.66-1.03,2.7-2.69,2.71c-2.6,0-5.2,0.01-7.81-0.01
		c-0.34,0-0.51,0.09-0.68,0.4c-0.46,0.84-1.22,1.28-2.18,1.27c-0.96-0.01-1.7-0.46-2.15-1.31c-0.15-0.27-0.3-0.36-0.6-0.36
		c-6.19,0.01-12.39,0.01-18.58,0c-0.32,0-0.48,0.1-0.63,0.38C14.21,49.56,13.46,50,12.5,50c-0.96,0-1.7-0.45-2.17-1.29
		c-0.16-0.29-0.32-0.38-0.64-0.38c-2.32,0.01-4.65,0.01-6.97,0.01c-1.69,0-2.71-1.03-2.71-2.73C0.01,44.33,0.02,43.04,0.02,41.68z
		 M1.68,43.37c0,0.78,0,1.52,0,2.27c0,0.75,0.29,1.04,1.04,1.04c2.34,0,4.68,0,7.03,0.01c0.27,0,0.42-0.06,0.56-0.32
		c0.46-0.87,1.21-1.33,2.19-1.34c0.98,0,1.73,0.45,2.2,1.32c0.13,0.25,0.27,0.34,0.55,0.34c6.23-0.01,12.46,0,18.68-0.02
		c0.17,0,0.41-0.15,0.5-0.3c0.5-0.85,1.22-1.33,2.2-1.34c1-0.01,1.74,0.47,2.25,1.34c0.09,0.15,0.33,0.3,0.5,0.3
		c1.02,0.03,2.05,0.01,3.07,0.01c1.63,0,3.26,0,4.89,0c0.56,0,0.94-0.26,0.96-0.75c0.03-0.84,0.01-1.69,0.01-2.56
		C32.76,43.37,17.26,43.37,1.68,43.37z M24.13,34.99c0-1.68,0-3.31,0-4.94c-1.67,0-3.31,0-4.98,0c0,0.83,0,1.62,0,2.43
		c-0.56,0-1.09,0-1.67,0c0-0.84,0-1.64,0-2.44c-0.57,0-1.08,0-1.61,0c0,1.66,0,3.3,0,4.95C18.63,34.99,21.36,34.99,24.13,34.99z
		 M27.5,30.05c-0.58,0-1.11,0-1.63,0c0,1.67,0,3.3,0,4.92c2.78,0,5.53,0,8.26,0c0-1.66,0-3.29,0-4.93c-1.66,0-3.29,0-4.99,0
		c0,0.83,0,1.64,0,2.43c-0.58,0-1.11,0-1.65,0C27.5,31.66,27.5,30.88,27.5,30.05z M5.88,36.7c0,1.68,0,3.31,0,4.93
		c2.78,0,5.52,0,8.25,0c0-1.67,0-3.31,0-4.93c-1.67,0-3.29,0-4.97,0c0,0.83,0,1.63,0,2.43c-0.58,0-1.11,0-1.67,0
		c0-0.83,0-1.62,0-2.44C6.94,36.7,6.43,36.7,5.88,36.7z M17.5,36.71c-0.58,0-1.11,0-1.63,0c0,1.67,0,3.3,0,4.92
		c2.78,0,5.53,0,8.26,0c0-1.66,0-3.29,0-4.93c-1.66,0-3.29,0-4.99,0c0,0.83,0,1.64,0,2.43c-0.58,0-1.11,0-1.65,0
		C17.5,38.32,17.5,37.54,17.5,36.71z M25.85,41.64c2.79,0,5.53,0,8.27,0c0-1.67,0-3.31,0-4.94c-1.66,0-3.28,0-4.96,0
		c0,0.83,0,1.63,0,2.44c-0.58,0-1.11,0-1.69,0c0-0.84,0-1.64,0-2.43c-0.57,0-1.08,0-1.62,0C25.85,38.36,25.85,39.99,25.85,41.64z
		 M44.12,41.66c0-1.68,0-3.31,0-4.94c-1.67,0-3.3,0-4.98,0c0,0.83,0,1.62,0,2.43c-0.56,0-1.09,0-1.67,0c0-0.84,0-1.64,0-2.44
		c-0.57,0-1.08,0-1.62,0c0,1.66,0,3.29,0,4.95C38.62,41.66,41.35,41.66,44.12,41.66z M7.51,30.02c-0.22,0-0.39,0-0.56,0
		c-0.82,0-1.09,0.27-1.1,1.09c0,0.5,0,1.01,0,1.51c0,0.79,0,1.58,0,2.36c2.81,0,5.56,0,8.3,0c0-1.66,0-3.29,0-4.93
		c-1.66,0-3.3,0-4.99,0c0,0.83,0,1.64,0,2.43c-0.58,0-1.11,0-1.65,0C7.51,31.65,7.51,30.87,7.51,30.02z M35.87,30.04
		c0,1.69,0,3.33,0,4.95c2.78,0,5.51,0,8.29,0c0-0.84,0-1.65,0-2.46c0.01-2.7,0.19-2.52-2.48-2.51c-0.83,0-1.65,0-2.53,0
		c0,0.87,0,1.67,0,2.47c-0.57,0-1.08,0-1.65,0c0-0.83,0-1.63,0-2.45C36.92,30.04,36.4,30.04,35.87,30.04z M13.34,47.49
		c-0.01-0.45-0.38-0.82-0.83-0.81c-0.45,0-0.82,0.37-0.83,0.82c-0.01,0.47,0.39,0.86,0.86,0.84C12.98,48.32,13.34,47.94,13.34,47.49
		z M36.65,46.68c-0.45,0-0.82,0.38-0.82,0.83c0,0.45,0.36,0.83,0.81,0.83c0.47,0.01,0.86-0.38,0.85-0.85
		C37.48,47.04,37.1,46.67,36.65,46.68z"/>
	<path class="st0" d="M20.4,17.1c-2.83,0.83-5.59,1.64-8.34,2.45c-1.08,0.32-2.16,0.63-3.24,0.95c-1.05,0.32-1.95,0.07-2.71-0.7
		c-1.52-1.52-3.05-3.04-4.56-4.57c-0.84-0.84-1.07-1.88-0.63-2.85c0.47-1.04,1.31-1.52,2.44-1.52c2.92,0.01,2.64-0.23,4.73,1.9
		c0.29,0.29,0.59,0.46,1.02,0.33c3.37-1,6.74-2,10.18-3.02c-0.12-0.19-0.21-0.34-0.31-0.49c-1.2-1.8-2.39-3.61-3.61-5.41
		c-0.62-0.91-0.81-1.84-0.26-2.83c0.53-0.97,1.4-1.27,2.47-1.33c1.31-0.08,2.36,0.33,3.39,1.13c2.5,1.96,5.07,3.82,7.6,5.74
		c0.29,0.22,0.53,0.28,0.89,0.17c2.07-0.64,4.14-1.25,6.22-1.85c2.21-0.64,4.22-0.24,6,1.21c0.81,0.66,1.25,1.48,1.01,2.56
		c-0.23,1.05-0.96,1.59-1.94,1.88c-3.56,1.03-7.11,2.08-10.67,3.11c-0.34,0.1-0.5,0.27-0.63,0.59c-1.31,3.39-2.63,6.78-3.95,10.17
		c-0.57,1.47-1.3,1.98-2.87,1.97c-0.43,0-0.87,0.01-1.29-0.09c-1.24-0.28-2.05-1.4-1.89-2.67c0.28-2.17,0.6-4.33,0.91-6.49
		C20.37,17.36,20.38,17.27,20.4,17.1z M30.42,12.1c0.14-0.03,0.21-0.05,0.27-0.06c3.24-0.95,6.48-1.89,9.72-2.84
		c0.79-0.23,0.93-0.86,0.32-1.4c-1.39-1.24-2.99-1.49-4.75-0.96c-8.74,2.61-17.49,5.2-26.23,7.81c-1.11,0.33-2.11,0.16-2.83-0.73
		c-0.91-1.14-1.99-1.61-3.43-1.4c-0.43,0.06-0.85,0.06-1.04,0.52c-0.19,0.45,0.03,0.79,0.35,1.1c1.47,1.45,2.93,2.91,4.38,4.38
		c0.4,0.41,0.8,0.51,1.35,0.34c3.68-1.1,7.37-2.2,11.07-3.23c0.82-0.23,1.28-0.55,1.25-1.42c0-0.03,0.03-0.06,0.07-0.13
		c0.51,0.08,1.03,0.16,1.58,0.24c-0.43,3.03-0.84,6.02-1.29,9c-0.19,1.26-0.13,1.79,1.46,1.71c0.83-0.04,0.98-0.1,1.27-0.87
		c1.09-2.79,2.17-5.59,3.25-8.38c0.67-1.72,1.34-3.45,2.03-5.22c0.53,0.2,1.02,0.4,1.54,0.6C30.64,11.48,30.54,11.76,30.42,12.1z
		 M26.98,7.78c-0.21-0.17-0.35-0.28-0.48-0.38c-2.17-1.63-4.38-3.22-6.51-4.91c-0.81-0.64-1.63-0.88-2.62-0.8
		c-0.78,0.07-1.16,0.7-0.73,1.35c1.38,2.1,2.78,4.18,4.18,6.26c0.08,0.11,0.33,0.21,0.46,0.17C23.15,8.93,25.01,8.37,26.98,7.78z"/>
	<path class="st0" d="M29.41,26.65c-0.17-0.57-0.32-1.06-0.48-1.59c5.59-1.7,11.15-3.4,16.87-5.14c-0.73-0.3-1.32-0.54-1.94-0.8
		c0.2-0.51,0.39-0.99,0.61-1.54c1.64,0.65,3.25,1.3,4.93,1.97c-0.66,1.64-1.3,3.26-1.97,4.93c-0.51-0.2-1-0.4-1.54-0.61
		c0.33-0.83,0.64-1.63,1-2.54C41.03,23.12,35.25,24.87,29.41,26.65z"/>
	<path class="st0" d="M17.25,20.08c0.17,0.53,0.33,1.02,0.51,1.58c-3.89,1.23-7.76,2.45-11.66,3.68c-0.17-0.52-0.33-1.01-0.51-1.59
		C9.48,22.53,13.34,21.31,17.25,20.08z"/>
	<path class="st0" d="M35.26,17.02c-0.17-0.54-0.33-1.03-0.51-1.59c2.13-0.67,4.23-1.33,6.39-2.02c0.17,0.54,0.33,1.04,0.5,1.59
		C39.51,15.67,37.42,16.33,35.26,17.02z"/>
	<path class="st0" d="M12.26,3.41c0.18,0.56,0.33,1.05,0.5,1.59C10.81,5.61,8.9,6.22,6.94,6.84C6.77,6.3,6.61,5.8,6.43,5.25
		C8.39,4.63,10.29,4.03,12.26,3.41z"/>
	<path class="st0" d="M5.26,7.36C4.38,7.64,3.6,7.89,2.77,8.15C2.6,7.62,2.44,7.11,2.27,6.57C3.12,6.3,3.92,6.05,4.76,5.78
		C4.93,6.31,5.09,6.82,5.26,7.36z"/>
	<path class="st0" d="M31.1,18.33c-0.18-0.56-0.33-1.05-0.5-1.58c0.83-0.27,1.63-0.52,2.49-0.79c0.17,0.52,0.33,1.02,0.51,1.58
		C32.75,17.8,31.96,18.06,31.1,18.33z"/>
	<path class="st0" d="M3.93,24.28c0.17,0.54,0.32,1.03,0.5,1.58c-0.43,0.14-0.84,0.27-1.24,0.4c-0.39,0.12-0.79,0.24-1.24,0.38
		c-0.17-0.53-0.33-1.02-0.51-1.57C2.27,24.81,3.07,24.56,3.93,24.28z"/>
	<path class="st0" d="M35.26,2.8c-0.57,0.18-1.09,0.34-1.66,0.52c-0.17-0.55-0.33-1.04-0.5-1.58c0.56-0.18,1.08-0.34,1.65-0.52
		C34.92,1.76,35.08,2.26,35.26,2.8z"/>
	<path class="st0" d="M45.26,4.16c-0.18-0.58-0.33-1.05-0.5-1.58c0.55-0.18,1.08-0.34,1.66-0.53c0.17,0.53,0.33,1.02,0.5,1.58
		C46.36,3.82,45.83,3.98,45.26,4.16z"/>
	<path class="st0" d="M46.09,12.19c-0.18-0.56-0.33-1.05-0.5-1.58c0.55-0.18,1.08-0.34,1.65-0.52c0.17,0.53,0.33,1.03,0.51,1.58
		C47.19,11.84,46.67,12.01,46.09,12.19z"/>
</g>
</svg>
