<?xml version="1.0" encoding="utf-8"?>
<!-- Generator: Adobe Illustrator 27.2.0, SVG Export Plug-In . SVG Version: 6.00 Build 0)  -->
<svg version="1.1" id="Capa_1" xmlns="http://www.w3.org/2000/svg" xmlns:xlink="http://www.w3.org/1999/xlink" x="0px" y="0px"
	 viewBox="0 0 50 50" style="enable-background:new 0 0 50 50;" xml:space="preserve">
<style type="text/css">
	.st0{fill:#FFFFFF;}
</style>
<path class="st0" d="M25.26,50"/>
<g>
	<path class="st0" d="M2.5,24.22c0-7.12,0-14.23,0-21.35C2.5,0.98,3.47,0,5.34,0c11.44,0,22.87,0,34.31,0
		c1.87,0,2.84,0.98,2.84,2.87c0,4.74,0,9.48,0.01,14.22c0,0.29,0.15,0.58,0.21,0.88c0.1,0.55,0.28,1.11,0.26,1.66
		c-0.03,0.7-0.21,1.4-0.34,2.1c-0.08,0.38,0,0.69,0.25,1c2.28,2.84,3.8,6.04,4.35,9.65c0.16,1.08,0.25,2.17,0.26,3.26
		c0.03,3.32,0.01,6.63,0.01,9.95c0,2.63-1.77,4.4-4.41,4.4c-12.06,0-24.12,0-36.19,0c-2.61,0-4.39-1.78-4.39-4.38
		C2.5,38.49,2.5,31.35,2.5,24.22z M40.83,16.67c0-0.25,0-0.44,0-0.63c0-4.37,0-8.75,0-13.12c0-1.02-0.22-1.25-1.25-1.25
		c-11.37,0-22.74,0-34.11,0c-1.1,0-1.3,0.2-1.3,1.3c0,14.15,0,28.3,0,42.45c0,0.16,0,0.31,0,0.47c0.04,1.36,1.13,2.44,2.48,2.45
		c1.37,0.01,2.48-1.07,2.52-2.46c0.01-0.5,0-1.01,0-1.51c0.01-1.66,1.04-2.69,2.7-2.7c2.46,0,4.93-0.01,7.39,0.01
		c0.33,0,0.51-0.08,0.69-0.39c1.19-2.13,3.57-3.26,5.99-2.86c0.52,0.09,1.02,0.26,1.56,0.4c0-1.54,0-3.04,0-4.55
		c0-1.19,0.62-2.06,1.71-2.49c0.16-0.06,0.34-0.24,0.38-0.39c0.71-3.23,2.15-6.1,4.21-8.67c0.24-0.3,0.32-0.59,0.24-0.96
		c-0.13-0.65-0.22-1.3-0.33-1.95c-0.32-1.83,0.78-3.15,2.63-3.15C37.81,16.66,39.28,16.67,40.83,16.67z M39.16,48.32
		c-0.04-0.01,0,0.01,0.03,0.01c1.3,0,2.6,0.01,3.9,0.01c1.7,0,2.73-1.03,2.73-2.71c0-3.33,0.02-6.67-0.01-10
		c-0.01-1.04-0.1-2.08-0.26-3.11c-0.51-3.22-1.9-6.06-3.87-8.64c-0.43-0.57-0.87-0.59-1.47-0.5c0.48,2.16,0.95,4.28,1.42,6.45
		c-0.57,0.12-1.07,0.23-1.6,0.35c-0.05-0.2-0.11-0.36-0.14-0.53c-0.45-2-0.89-3.99-1.34-5.99c-0.03-0.12-0.16-0.21-0.25-0.32
		c-0.07,0.1-0.17,0.2-0.2,0.31c-0.18,0.74-0.34,1.49-0.51,2.23c-0.32,1.42-0.63,2.83-0.96,4.29c-0.56-0.13-1.07-0.24-1.62-0.36
		c0.48-2.19,0.95-4.31,1.42-6.43c-0.67-0.16-1.15-0.04-1.52,0.58c-0.42,0.71-0.97,1.36-1.4,2.06c-1.07,1.73-1.82,3.6-2.26,5.64
		c1.73,0,3.41,0,5.09,0c1.81,0,2.81,0.99,2.81,2.79c0,4.17,0,8.33,0,12.5C39.16,47.39,39.16,47.82,39.16,48.32z M25,40
		c-2.3,0-4.17,1.87-4.17,4.17c0,2.28,1.86,4.15,4.13,4.16c2.33,0.01,4.21-1.87,4.2-4.2C29.15,41.86,27.28,40,25,40z M19.2,43.37
		c-0.1-0.02-0.15-0.04-0.2-0.04c-2.41,0-4.82-0.01-7.23,0c-0.63,0-0.92,0.32-0.94,0.98c-0.03,0.8,0,1.6-0.12,2.38
		c-0.09,0.55-0.38,1.08-0.57,1.59c3.55,0,7.1,0,10.72,0C19.55,46.87,19.01,45.26,19.2,43.37z M29.19,39.96c2.79,0,5.54,0,8.27,0
		c0-0.84,0-1.65,0-2.43c-2.78,0-5.51,0-8.27,0C29.19,38.35,29.19,39.14,29.19,39.96z M29.17,35.8c2.81,0,5.55,0,8.33,0
		c0-0.57,0.02-1.11-0.01-1.64c-0.02-0.49-0.34-0.81-0.83-0.82c-2.22-0.01-4.44-0.01-6.65,0c-0.5,0-0.81,0.33-0.83,0.82
		C29.15,34.69,29.17,35.23,29.17,35.8z M40.96,21.65c0.13-0.83,0.29-1.61,0.38-2.4c0.06-0.51-0.27-0.9-0.77-0.91
		c-1.49-0.02-2.98-0.02-4.47,0c-0.49,0.01-0.83,0.38-0.78,0.85c0.09,0.82,0.25,1.63,0.38,2.45C37.47,21.65,39.18,21.65,40.96,21.65z
		 M29.27,48.33c2.44,0,4.93,0.01,7.43-0.01c0.43,0,0.74-0.28,0.77-0.7c0.05-0.58,0.01-1.17,0.01-1.78c-2.25,0-4.45,0-6.65,0.01
		c-0.11,0-0.26,0.13-0.32,0.24C30.09,46.82,29.69,47.56,29.27,48.33z M37.47,41.69c-2.41,0-4.77,0-7.1,0
		c0.18,0.82,0.36,1.62,0.55,2.44c2.15,0,4.34,0,6.55,0C37.47,43.32,37.47,42.53,37.47,41.69z"/>
	<path class="st0" d="M7.53,9.96c0-0.55,0-1.07,0-1.61c9.98,0,19.93,0,29.93,0c0,0.52,0,1.04,0,1.61C27.5,9.96,17.53,9.96,7.53,9.96
		z"/>
	<path class="st0" d="M37.47,13.37c0,0.55,0,1.06,0,1.6c-9.99,0-19.95,0-29.95,0c0-0.54,0-1.05,0-1.6
		C17.49,13.37,27.46,13.37,37.47,13.37z"/>
	<path class="st0" d="M20.11,26.37c0.77,0.77,1.57,1.58,2.34,2.36c1.24-1.24,2.47-2.48,3.7-3.71c-0.61,0-1.26,0-1.95,0
		c0-0.57,0-1.09,0-1.65c1.64,0,3.27,0,4.94,0c0,1.64,0,3.27,0,4.93c-0.52,0-1.05,0-1.62,0c0-0.65,0-1.3,0-2
		c-1.66,1.67-3.29,3.31-4.93,4.96c-0.91-0.93-1.71-1.74-2.51-2.54c-1.77,1.77-3.49,3.5-5.23,5.24c-0.43-0.47-0.79-0.86-1.11-1.21
		C15.8,30.68,17.91,28.56,20.11,26.37z"/>
	<path class="st0" d="M24.97,18.37c0,0.55,0,1.06,0,1.6c-5.82,0-11.62,0-17.45,0c0-0.54,0-1.05,0-1.6
		C13.33,18.37,19.13,18.37,24.97,18.37z"/>
	<path class="st0" d="M29.97,4.2c0,0.55,0,1.07,0,1.61c-4.98,0-9.93,0-14.93,0c0-0.52,0-1.04,0-1.61C20,4.2,24.96,4.2,29.97,4.2z"/>
	<path class="st0" d="M21.63,24.97c-4.73,0-9.4,0-14.1,0c0-0.54,0-1.05,0-1.6c4.69,0,9.38,0,14.1,0
		C21.63,23.89,21.63,24.42,21.63,24.97z"/>
	<path class="st0" d="M7.53,38.35c3.04,0,6.05,0,9.1,0c0,0.53,0,1.06,0,1.61c-3.03,0-6.05,0-9.1,0C7.53,39.44,7.53,38.93,7.53,38.35
		z"/>
	<path class="st0" d="M30.01,21.65c-0.59,0-1.1,0-1.67,0c0-0.54,0-1.06,0-1.63c-0.57,0-1.08,0-1.64,0c0-0.56,0-1.09,0-1.67
		c0.52,0,1.05,0,1.61,0c0-0.57,0-1.08,0-1.64c0.56,0,1.09,0,1.67,0c0,0.52,0,1.05,0,1.61c0.57,0,1.08,0,1.64,0c0,0.56,0,1.09,0,1.67
		c-0.52,0-1.05,0-1.61,0C30.01,20.56,30.01,21.07,30.01,21.65z"/>
	<path class="st0" d="M22.46,35.84c-0.55,0-1.06,0-1.61,0c0,0.55,0,1.07,0,1.62c-0.56,0-1.09,0-1.67,0c0-0.52,0-1.05,0-1.61
		c-0.57,0-1.08,0-1.64,0c0-0.56,0-1.09,0-1.67c0.52,0,1.05,0,1.61,0c0-0.57,0-1.08,0-1.64c0.56,0,1.09,0,1.67,0
		c0,0.52,0,1.05,0,1.61c0.57,0,1.08,0,1.64,0C22.46,34.72,22.46,35.24,22.46,35.84z"/>
	<path class="st0" d="M7.53,28.35c2.21,0,4.39,0,6.6,0c0,0.53,0,1.06,0,1.61c-2.19,0-4.38,0-6.6,0C7.53,29.44,7.53,28.93,7.53,28.35
		z"/>
	<path class="st0" d="M7.54,33.34c1.1,0,2.15,0,3.25,0c0,0.53,0,1.06,0,1.62c-1.07,0-2.15,0-3.25,0
		C7.54,34.42,7.54,33.88,7.54,33.34z"/>
</g>
</svg>
