<?xml version="1.0" encoding="utf-8"?>
<!-- Generator: Adobe Illustrator 27.2.0, SVG Export Plug-In . SVG Version: 6.00 Build 0)  -->
<svg version="1.1" id="Capa_1" xmlns="http://www.w3.org/2000/svg" xmlns:xlink="http://www.w3.org/1999/xlink" x="0px" y="0px"
	 viewBox="0 0 50 50" style="enable-background:new 0 0 50 50;" xml:space="preserve">
<style type="text/css">
	.st0{fill:#FFFFFF;}
</style>
<path class="st0" d="M41.91,40.06c-1.95-0.09-3.89-0.22-5.84-0.27c-0.66-0.02-1.32,0.13-1.98,0.2c0.19,0.59,0.38,1.19,0.6,1.88
	c-7.53,4.8-18.63,2.85-24.61-4.38c-5.26-6.36-6.01-15.16-1.89-22.35c0.68-1.18,0.68-1.18-0.49-1.93c-0.79-0.51-1.61-0.97-2.36-1.54
	c-0.81-0.62-1.29-0.47-1.8,0.4c-2.86,4.88-4.02,10.14-3.35,15.73C2.29,45.54,21.35,55.4,37.08,46.91c0.29-0.16,0.59-0.31,0.92-0.49
	c0.43,0.64,0.78,1.2,1.18,1.72c0.2,0.26,0.58,0.65,0.74,0.59c0.29-0.1,0.58-0.46,0.7-0.78c0.8-2.15,1.56-4.31,2.33-6.47
	C43.36,40.34,43.19,40.12,41.91,40.06z M39.78,46.79c-0.18-0.2-0.31-0.32-0.4-0.45c-1.08-1.48-1.08-1.49-2.72-0.57
	C21.98,53.91,3.76,44.83,1.43,28.2c-0.74-5.28,0.53-11.5,3.23-15.54c0.88,0.57,1.72,1.11,2.59,1.68c-1.53,2.71-2.46,5.51-2.81,8.52
	c-1.22,10.47,6.37,20.62,16.78,22.42c4.99,0.86,9.68,0.1,14.11-2.36c0.81-0.45,1.38-0.9,0.39-1.98c2.11,0.11,3.99,0.21,6.03,0.32
	C41.08,43.15,40.45,44.93,39.78,46.79z M49.8,22.2C47.65,4.32,28.53-5.46,12.73,3.19c-0.23,0.13-0.48,0.22-0.74,0.33
	c-0.38-0.59-0.69-1.14-1.07-1.64c-0.39-0.52-0.89-0.51-1.13,0.1C8.85,4.38,7.95,6.79,7.05,9.2c-0.19,0.52-0.01,0.91,0.6,0.96
	c2.53,0.2,5.06,0.41,7.6,0.57c0.75,0.05,0.99-0.39,0.62-1.07c-0.23-0.43-0.5-0.83-0.83-1.36c0.35-0.21,0.6-0.38,0.87-0.53
	c9.85-5.23,22.39-0.91,26.83,9.31c2.65,6.11,2.29,12.13-1.04,17.92c-0.45,0.78-0.41,1.22,0.38,1.67c0.91,0.51,1.8,1.06,2.64,1.68
	c0.8,0.59,1.23,0.4,1.71-0.42C49.31,33.06,50.48,27.79,49.8,22.2z M45.39,37.35c-0.89-0.57-1.73-1.11-2.64-1.69
	c1.29-2.3,2.16-4.69,2.62-7.24c2.08-11.6-6.58-22.89-18.32-23.94c-4.25-0.38-8.24,0.39-11.99,2.39c-1.59,0.85-1.59,0.87-0.9,2.5
	c-0.14,0.01-0.27,0.04-0.4,0.04c-1.73-0.12-3.46-0.25-5.37-0.39c0.71-1.88,1.38-3.64,2.05-5.41c0.11,0.05,0.2,0.07,0.23,0.11
	c1.02,1.42,1.02,1.42,2.55,0.56c14.66-8.27,32.99,0.77,35.34,17.45C49.33,27.26,48.26,32.45,45.39,37.35z M38.71,23.32
	c0.02-0.6-0.25-0.94-0.81-0.94c-1.42,0-2.33-0.6-2.57-2.05c0-0.03-0.02-0.06-0.04-0.08c-0.53-0.65-0.36-1.21,0.15-1.79
	c0.34-0.39,0.6-0.86,0.89-1.29c-0.15-0.23-0.22-0.4-0.34-0.52c-0.6-0.62-1.21-1.22-1.83-1.83c-1.43-1.41-1.06-1.39-2.63-0.24
	c-0.63,0.46-1.09,0.39-1.82,0.18c-1.44-0.42-2.1-1.21-2.1-2.67c0-0.57-0.37-0.81-0.96-0.79c-0.68,0.03-1.37,0.01-2.05,0.01
	c-2.53,0.02-2.02-0.26-2.46,2.06c-0.1,0.52-0.35,0.7-0.79,0.92c-1.35,0.71-2.59,0.99-3.76-0.33c-0.34-0.39-0.73-0.24-1.07,0.12
	c-0.59,0.62-1.22,1.22-1.83,1.83c-1.25,1.27-1.29,0.97-0.23,2.43c0.49,0.68,0.53,1.2,0.24,2.05c-0.46,1.36-1.21,1.96-2.59,1.97
	c-0.62,0-0.87,0.38-0.83,1.01c0.04,0.68,0,1.37,0.01,2.05c0.01,2.51-0.24,1.98,2.02,2.39c0.61,0.11,0.75,0.44,1.02,0.9
	c0.8,1.36,0.82,2.54-0.35,3.69c-0.15,0.15-0.09,0.75,0.09,0.97c0.59,0.7,1.28,1.32,1.93,1.97c1.07,1.07,1.1,1.11,2.29,0.19
	c0.7-0.54,1.24-0.56,2.12-0.27c1.37,0.46,1.95,1.21,1.96,2.58c0,0.6,0.35,0.89,0.99,0.86c0.77-0.04,1.54-0.01,2.32-0.01
	c2.25,0.02,1.76,0.06,2.12-1.83c0.13-0.66,0.39-0.92,0.98-1.26c1.38-0.78,2.49-0.69,3.63,0.39c0.16,0.15,0.76,0.09,0.97-0.09
	c0.89-0.79,1.69-1.67,2.55-2.5c0.37-0.35,0.42-0.69,0.1-1.09c-0.2-0.26-0.35-0.56-0.57-0.8c-0.57-0.59-0.42-1.13-0.2-1.88
	c0.42-1.41,1.21-2.03,2.63-2.02c0.56,0,0.83-0.33,0.82-0.93C38.68,25.58,38.68,24.45,38.71,23.32z M37.39,26.66
	c-1.56-0.02-2.48,0.56-3.16,2.2c-0.68,1.63-0.38,2.65,0.71,3.73c-0.82,0.77-1.56,1.46-2.4,2.24c-1.03-0.94-2.07-1.31-3.73-0.59
	c-1.6,0.7-2.16,1.59-2.14,3.16c-1.12,0-2.14,0-3.28,0c-0.12-1.43-0.48-2.5-2.2-3.16c-1.63-0.62-2.7-0.49-3.77,0.7
	c-0.81-0.83-1.52-1.55-2.32-2.36c1.06-1.08,1.37-2.13,0.64-3.77c-0.7-1.56-1.52-2.24-3.14-2.1c0-1.17,0-2.18,0-3.33
	c1.45-0.1,2.5-0.52,3.15-2.22c0.63-1.62,0.46-2.65-0.64-3.7c0.81-0.79,1.55-1.51,2.38-2.32c1.01,1.01,2.04,1.32,3.7,0.59
	c1.6-0.7,2.14-1.62,2.15-3.15c1.13,0,2.15,0,3.29,0c0.04,1.53,0.54,2.51,2.22,3.16c1.61,0.62,2.65,0.48,3.68-0.64
	c0.79,0.8,1.49,1.53,2.3,2.35c-0.94,1-1.3,2.03-0.59,3.69c0.69,1.6,1.56,2.19,3.14,2.18C37.39,24.47,37.39,25.51,37.39,26.66z
	 M24.98,19.11c-3.24,0.01-5.89,2.68-5.87,5.91c0.02,3.23,2.7,5.89,5.92,5.88c3.23-0.01,5.89-2.69,5.87-5.91
	C30.87,21.74,28.21,19.1,24.98,19.11z M25.04,29.53c-2.54,0.01-4.57-2.01-4.57-4.54c0-2.51,2-4.51,4.52-4.51c2.51,0,4.52,2,4.53,4.5
	C29.53,27.49,27.54,29.52,25.04,29.53z"/>
</svg>
