<?xml version="1.0" encoding="utf-8"?>
<!-- Generator: Adobe Illustrator 27.2.0, SVG Export Plug-In . SVG Version: 6.00 Build 0)  -->
<svg version="1.1" id="Capa_1" xmlns="http://www.w3.org/2000/svg" xmlns:xlink="http://www.w3.org/1999/xlink" x="0px" y="0px"
	 viewBox="0 0 50 50" style="enable-background:new 0 0 50 50;" xml:space="preserve">
<style type="text/css">
	.st0{fill:#FFFFFF;}
</style>
<path class="st0" d="M6.75,37.46c5.1,0,10.05,0,14.99,0c0.29,0,0.57,0.01,0.86,0c0.62-0.02,1.23,0.04,1.2,0.84
	c-0.02,0.73-0.62,0.77-1.18,0.77c-4.16,0-8.31,0-12.47,0c-1.29,0-2.58,0-3.87,0c-0.6,0-1.13-0.14-1.12-0.85
	c0.04-3.47-0.25-7,0.26-10.4c0.82-5.49,4.37-8.91,9.7-10.7c-3-2.08-4.65-4.87-4.45-8.53c0.15-2.58,1.27-4.75,3.26-6.43
	c3.86-3.27,9.58-2.76,12.91,1.1c2.9,3.36,3.49,9.79-2.27,13.86c0.36,0.14,0.67,0.25,0.98,0.37c3.44,1.28,6,3.56,7.63,6.86
	c0.27,0.55,0.6,1.19-0.2,1.56c-0.75,0.34-0.98-0.31-1.24-0.82c-2.32-4.45-6-6.74-11-6.7c-1.98,0.01-4.05,0.1-5.93,0.65
	c-4.76,1.41-7.99,5.96-8.06,10.92C6.72,32.41,6.75,34.87,6.75,37.46z M12.29,9.18c0,4.16,3.32,7.51,7.49,7.55
	c4.16,0.04,7.6-3.38,7.6-7.56c0-4.18-3.45-7.6-7.61-7.56C15.62,1.64,12.29,5.02,12.29,9.18z M27.18,45.13
	c-0.32,0.18-0.74,0.38-1.12,0.64c-0.78,0.52-1.37,0.45-1.83-0.44c-0.41-0.79-0.86-1.57-1.34-2.32c-0.51-0.8-0.44-1.43,0.48-1.81
	c0.95-0.39,1.39-0.93,1.08-2.03c-0.18-0.63-0.15-1.39,0.03-2.02c0.27-0.92-0.14-1.27-0.85-1.65c-1.31-0.71-1.33-0.87-0.6-2.15
	c0.41-0.71,0.84-1.41,1.22-2.14c0.42-0.81,0.95-1,1.73-0.46c0.38,0.26,0.8,0.46,1.1,0.63c1.26-0.67,2.47-1.26,3.61-1.97
	c0.25-0.16,0.34-0.72,0.35-1.1c0.04-1.7,0.1-1.77,1.76-1.77c0.75,0,1.51,0.03,2.26-0.01c0.97-0.05,1.45,0.38,1.32,1.33
	c-0.14,1.03,0.15,1.66,1.24,1.95c0.57,0.15,1.15,0.5,1.56,0.92c0.76,0.79,1.43,0.69,2.2,0.08c0.81-0.64,1.41-0.43,1.87,0.48
	c0.4,0.8,0.87,1.57,1.34,2.33c0.48,0.77,0.37,1.37-0.48,1.73c-0.98,0.41-1.43,0.98-1.1,2.13c0.18,0.62,0.1,1.37-0.05,2.02
	c-0.18,0.79,0.09,1.15,0.76,1.51c1.47,0.79,1.47,0.9,0.61,2.39c-0.37,0.65-0.78,1.29-1.12,1.95c-0.42,0.82-1,1.02-1.73,0.46
	c-0.84-0.63-1.6-0.81-2.38,0.09c-0.22,0.26-0.57,0.47-0.9,0.57c-1.33,0.41-2.13,1.1-1.86,2.66c0.04,0.23-0.6,0.78-0.96,0.83
	c-1.03,0.12-2.07,0.02-3.11,0.05c-0.88,0.03-1.32-0.38-1.19-1.23c0.19-1.15-0.26-1.7-1.34-2.1C28.84,46.35,28.08,45.69,27.18,45.13z
	 M41.95,32.36c-0.25,0.13-0.45,0.21-0.62,0.33c-0.93,0.72-1.71,0.76-2.58-0.21c-0.52-0.59-1.31-1.12-2.07-1.28
	c-1.61-0.34-2.21-1.21-2-2.77c0.01-0.05-0.07-0.11-0.12-0.18c-0.59,0-1.18,0-1.81,0c-0.02,0.31-0.07,0.55-0.04,0.79
	c0.13,1.05-0.24,1.64-1.34,1.92c-0.81,0.2-1.69,0.59-2.25,1.17c-1.18,1.21-2.27,1.49-3.58,0.1c-0.39,0.7-0.71,1.27-1.05,1.87
	c0.29,0.18,0.46,0.32,0.65,0.39c1.09,0.43,1.42,1.12,1.03,2.28c-0.21,0.62-0.15,1.35-0.12,2.02c0.04,0.74,0.44,1.59,0.2,2.2
	c-0.25,0.63-1.08,1.02-1.72,1.58c0.3,0.51,0.62,1.05,0.95,1.61c0.3-0.16,0.54-0.25,0.73-0.4c0.88-0.69,1.6-0.62,2.41,0.23
	c0.55,0.58,1.3,1.14,2.05,1.3c1.62,0.36,2.3,1.21,2.08,2.83c-0.01,0.05,0.07,0.11,0.12,0.18c0.59,0,1.18,0,1.79,0
	c0.02-0.31,0.08-0.57,0.05-0.81c-0.15-1.11,0.28-1.69,1.42-1.96c0.8-0.2,1.69-0.61,2.23-1.2c1.13-1.24,2.17-1.26,3.39-0.28
	c0.04,0.03,0.13-0.01,0.27-0.02c0.29-0.5,0.6-1.04,0.92-1.6c-0.3-0.19-0.46-0.34-0.65-0.42c-1.09-0.42-1.43-1.1-1.05-2.27
	c0.22-0.65,0.24-1.45,0.1-2.12c-0.33-1.58-0.53-3.02,1.67-3.45C42.6,33.47,42.29,32.93,41.95,32.36z M33.73,32.43
	c3.25,0.01,5.88,2.66,5.85,5.88c-0.03,3.23-2.7,5.85-5.93,5.82c-3.17-0.03-5.79-2.67-5.8-5.84C27.84,35.06,30.49,32.42,33.73,32.43z
	 M37.93,38.25c-0.01-2.34-1.89-4.22-4.23-4.21c-2.33,0.01-4.2,1.9-4.19,4.25c0.01,2.36,1.87,4.2,4.23,4.19
	C36.09,42.47,37.94,40.61,37.93,38.25z"/>
</svg>
