<?xml version="1.0" encoding="utf-8"?>
<!-- Generator: Adobe Illustrator 27.2.0, SVG Export Plug-In . SVG Version: 6.00 Build 0)  -->
<svg version="1.1" id="Capa_1" xmlns="http://www.w3.org/2000/svg" xmlns:xlink="http://www.w3.org/1999/xlink" x="0px" y="0px"
	 viewBox="0 0 50 50" style="enable-background:new 0 0 50 50;" xml:space="preserve">
<style type="text/css">
	.st0{fill:#FFFFFF;}
</style>
<path class="st0" d="M24.27-25.59"/>
<path class="st0" d="M24.27,80.92"/>
<path class="st0" d="M50,42.59c0-0.05-0.02-0.08-0.03-0.13C50,36.87,50,31.28,49.99,25.69c0-1.66-0.4-2.04-2.07-2.05
	c-2.87-0.01-5.75,0-8.62,0c-1.68,0-1.69,0-1.69-1.64c0-6.17,0-12.34-0.01-18.52c0-1.8-0.42-2.2-2.19-2.21c-3.46,0-6.91,0-10.37,0
	c-3.38,0-6.76,0-10.13,0c-2.23,0-2.54,0.3-2.54,2.56c0,6.02,0,12.03,0,18.05c0,1.75,0,1.75-1.81,1.75c-2.76,0-5.51,0-8.27,0
	c-1.99,0-2.31,0.31-2.31,2.28c0,5.53,0,11.06,0.01,16.59c0,0.03-0.02,0.05-0.02,0.08v5.1c0,0.15,0.03,0.29,0.09,0.41
	c0.15,0.37,0.52,0.62,0.94,0.62h4.05c0.02,0,0.04-0.01,0.06-0.01c6.62,0.01,13.24,0.01,19.85,0.01c6.64,0,13.28,0,19.92,0
	c0,0,0,0,0,0h4.05c0.42,0,0.79-0.26,0.94-0.62c0.06-0.13,0.09-0.26,0.09-0.41V42.59z M37.49,26.37c2.69,0,2.33-0.33,2.33,2.36
	c0,2.72,0.37,2.32-2.45,2.36c-2.57-0.03-2.28,0.33-2.28-2.31C35.1,26.03,34.73,26.38,37.49,26.37z M25.1,4.01
	c2.45,0,2.18-0.29,2.2,2.4c-0.02,2.65,0.23,2.31-2.28,2.31c-2.53,0-2.31,0.35-2.31-2.28C22.71,3.65,22.41,4.01,25.1,4.01z
	 M12.54,26.22c2.59,0.03,2.37-0.15,2.36,2.46c0,2.79,0.34,2.4-2.4,2.41c-2.67,0-2.32,0.35-2.32-2.36
	C10.19,26.01,9.72,26.26,12.54,26.22z M22.39,46.01c-3.11-0.02-6.21-0.01-9.32-0.01c-3.07,0-6.13-0.02-9.2,0.01
	c-0.72,0.01-1.04-0.2-1.12-0.8v-2.63c0-0.06-0.03-0.12-0.04-0.18c0.02-5,0.02-9.99,0-14.99c0-0.82,0.3-1.11,1.1-1.07
	c0.85,0.04,1.71,0.04,2.56,0c0.79-0.04,1.12,0.25,1.1,1.07c-0.04,1.51-0.03,3.03,0,4.54c0.02,1.33,0.51,1.83,1.84,1.84
	c2.17,0.02,4.35,0.02,6.52,0c1.35-0.01,1.78-0.47,1.8-1.85c0.02-1.48,0.04-2.95-0.01-4.43c-0.03-0.83,0.22-1.21,1.11-1.17
	c1.28,0.06,2.56,0.04,3.84,0.01c0.69-0.01,0.98,0.25,0.98,0.95c-0.01,5.9-0.02,11.8,0.01,17.7C23.57,45.91,23.11,46.02,22.39,46.01z
	 M16.44,23.66c-0.92,0.01-1.21-0.32-1.21-1.22c0.03-5.74,0.03-11.49,0-17.23c0-0.89,0.26-1.29,1.2-1.23
	c0.81,0.06,1.63,0.04,2.44,0.01c0.7-0.02,0.97,0.29,0.97,0.97c-0.02,1.44-0.01,2.87,0,4.31c0.02,1.71,0.47,2.17,2.13,2.17
	c2.1,0.01,4.19,0.02,6.29,0c1.32-0.01,1.84-0.51,1.88-1.82c0.04-1.51,0.04-3.03,0.01-4.54c-0.02-0.8,0.28-1.14,1.09-1.09
	c0.81,0.04,1.63,0.04,2.44,0c0.83-0.04,1.08,0.33,1.07,1.11c-0.02,2.95-0.01,5.9-0.01,8.85c0,2.83-0.02,5.67,0.02,8.5
	c0.01,0.9-0.29,1.22-1.21,1.21C27.85,23.62,22.14,23.62,16.44,23.66z M27.8,46.02c-0.97,0.02-1.38-0.21-1.37-1.29
	c0.04-5.71,0.04-11.41,0-17.12c-0.01-0.96,0.31-1.32,1.28-1.26c1.2,0.06,2.41,0.05,3.61,0c0.83-0.03,1.08,0.31,1.06,1.1
	c-0.04,1.51-0.02,3.03-0.01,4.54c0.02,1.32,0.44,1.79,1.73,1.8c2.21,0.03,4.43,0.03,6.64,0c1.27-0.01,1.77-0.51,1.79-1.77
	c0.03-1.55,0.03-3.11,0-4.66c-0.02-0.76,0.28-1.05,1.03-1.02c0.89,0.04,1.79,0.05,2.68,0c0.85-0.05,1.05,0.35,1.05,1.12
	c-0.02,4.99-0.01,9.98,0,14.97c-0.01,0.05-0.03,0.1-0.03,0.15v2.63c-0.07,0.58-0.37,0.8-1.06,0.79c-3.14-0.03-6.29-0.01-9.43-0.01
	C33.78,46.01,30.79,45.97,27.8,46.02z"/>
</svg>
