<?xml version="1.0" encoding="utf-8"?>
<!-- Generator: Adobe Illustrator 27.2.0, SVG Export Plug-In . SVG Version: 6.00 Build 0)  -->
<svg version="1.1" id="Capa_1" xmlns="http://www.w3.org/2000/svg" xmlns:xlink="http://www.w3.org/1999/xlink" x="0px" y="0px"
	 viewBox="0 0 50 50" style="enable-background:new 0 0 50 50;" xml:space="preserve">
<style type="text/css">
	.st0{fill:#FFFFFF;}
</style>
<g>
	<path class="st0" d="M34.58,45.45c-6.39-0.01-12.78-0.01-19.18,0c-1.61,0-2.61,0.86-2.63,2.23C12.75,49.11,13.75,50,15.41,50
		c3.2,0,6.39,0,9.59,0c3.2,0,6.39,0,9.59,0c1.61,0,2.61-0.85,2.63-2.22C37.24,46.36,36.23,45.45,34.58,45.45z M34.58,48.7
		c-6.39-0.01-12.78-0.01-19.17,0c-0.71,0-1.34-0.16-1.34-0.97c0-0.81,0.62-0.97,1.34-0.97c3.2,0.02,6.39,0.01,9.59,0.01
		s6.39,0.01,9.59-0.01c0.72,0,1.34,0.15,1.34,0.96C35.93,48.54,35.29,48.7,34.58,48.7z"/>
	<path class="st0" d="M41.98,15.19C41.21,8.27,36.15,2.36,29.42,0.58C22.55-1.24,15.3,1.31,11.2,7.05
		c-2.62,3.67-3.82,7.74-2.99,12.25c0.43,2.31,1.45,4.41,2.56,6.46c3.36,6.21,7.73,11.71,12.25,17.09c1.11,1.32,2.87,1.26,4-0.08
		c1.11-1.32,2.19-2.67,3.27-4.02c0.02-0.02,0.03-0.02,0.05-0.05c0.07-0.09,0.16-0.2,0.26-0.33c0.24-0.29,0.48-0.58,0.71-0.88
		c0.15-0.19,0.31-0.38,0.39-0.59c1.25-1.68,2.93-3.99,3.8-5.18c0.11-0.11,0.21-0.25,0.31-0.39c0.07-0.1,0.13-0.21,0.2-0.31
		c0.04-0.05,0.06-0.09,0.06-0.09v-0.01c1.66-2.5,3.21-5.06,4.43-7.81C41.63,20.6,42.28,17.99,41.98,15.19z M39.28,22.75
		c-1.16,2.34-2.46,4.58-3.86,6.77c-1.69,2.45-5.67,7.85-5.74,7.94c-0.26,0.32-0.52,0.65-0.78,0.97c-0.83,1.03-1.66,2.05-2.49,3.08
		c-1.05,1.28-1.78,1.3-2.8,0.03c-1.49-1.84-3-3.66-4.43-5.54c-3.19-4.18-6.26-8.45-8.45-13.27c-0.83-1.83-1.51-3.71-1.51-5.75
		C9.19,8.4,16.29,1.33,24.95,1.3c3.66,0,6.92,1.14,9.81,3.38C39.26,8.16,42.86,15.56,39.28,22.75z"/>
	<path class="st0" d="M25.03,4.15C18,4.14,12.38,9.71,12.37,16.72c-0.01,7.02,5.59,12.66,12.58,12.67
		c7.02,0.01,12.64-5.59,12.66-12.59C37.63,9.77,32.05,4.16,25.03,4.15z M25.37,28.08c-4.33,0.2-9.22-2.71-10.32-6.17
		c6.63,0,13.24,0,19.85,0C34.26,24.88,29.63,27.89,25.37,28.08z M35.87,13.59c0.61,2.11,0.6,4.19,0.02,6.3
		c-0.15,0.56-0.4,0.71-0.97,0.71c-3.33-0.03-6.67-0.01-10-0.01c-3.23,0-6.47-0.02-9.7,0.02c-0.69,0.01-1.01-0.17-1.17-0.85
		c-0.51-2.05-0.53-4.08,0.05-6.12c0.14-0.48,0.32-0.71,0.87-0.7c6.7,0.02,13.4,0.02,20.1,0C35.57,12.94,35.74,13.13,35.87,13.59z
		 M15.03,11.58c1.36-3.51,5.77-6.19,10.07-6.16c4.2,0.03,8.62,2.78,9.85,6.16C28.31,11.58,21.68,11.58,15.03,11.58z"/>
</g>
</svg>
