<?xml version="1.0" encoding="utf-8"?>
<!-- Generator: Adobe Illustrator 27.2.0, SVG Export Plug-In . SVG Version: 6.00 Build 0)  -->
<svg version="1.1" id="Capa_1" xmlns="http://www.w3.org/2000/svg" xmlns:xlink="http://www.w3.org/1999/xlink" x="0px" y="0px"
	 viewBox="0 0 50 50" style="enable-background:new 0 0 50 50;" xml:space="preserve">
<style type="text/css">
	.st0{fill:#FFFFFF;}
	.st1{fill:none;}
	.st2{fill:#FFFFFF;stroke:#FFFFFF;stroke-width:0.5;stroke-miterlimit:10;}
</style>
<path class="st0" d="M44.07,11.79c-0.31-0.01-2.06-0.01-3.99-0.01V7.57c0-0.65-0.53-1.18-1.18-1.18h-2.7V1.18
	C36.2,0.53,35.67,0,35.02,0h-7.05c-0.65,0-1.18,0.53-1.18,1.18v5.21h-2.66c-0.65,0-1.18,0.53-1.18,1.18v7.32h-1.6v-0.03
	c-0.57,0-1.04,0-1.53,0c0-3.39,0-6.71,0-10.03c0-1.31-0.01-1.33-1.26-1.65c0-0.67,0.01-1.35,0-2.03c-0.01-0.88-0.25-1.14-1.1-1.15
	c-1.1-0.01-2.2-0.01-3.3,0c-0.85,0.01-1.09,0.26-1.1,1.14c-0.01,0.7,0,1.4,0,2.15c-0.35,0-0.6,0-0.86,0c-1.81,0-1.81,0-1.81,1.85
	c0,0.41,0,0.82,0,1.29c-0.37,0-0.65,0-0.94,0c-1.25,0-1.42,0.16-1.42,1.38c0,1.59,0,3.19,0,4.9c-0.77,0-1.45-0.01-2.13,0
	c-0.62,0.02-1.06,0.53-0.97,1.14c0.39,2.9,0.81,5.81,1.19,8.71c0.09,0.71,0.43,0.99,1.14,0.99c9.71-0.01,19.42,0.01,29.12-0.02
	c3.32-0.01,6.23-2.25,7.19-5.44c0.5-1.68,0.96-3.37,1.42-5.05C45.23,12.22,44.92,11.8,44.07,11.79z M38.47,8.07v3.71
	c-2.11,0-4.02,0-4.02,0c-0.3,0-0.55,0.25-0.55,0.55v0.37v0.16v0.55v1.4h-1.59V8.07H38.47z M28.48,1.6h6.04v4.78H31.9
	c-0.01,0-0.02,0-0.02,0h-0.72c-0.01,0-0.02,0-0.02,0h-2.65V1.6z M24.56,8.07h6.16v6.74h-6.16V8.07z M14.69,1.61
	c0.76,0,1.48,0,2.26,0c0,0.54,0,1.07,0,1.64c-0.74,0-1.48,0-2.26,0C14.69,2.72,14.69,2.21,14.69,1.61z M12.03,4.94
	c2.07,0,4.13,0,6.21,0c0,0.5,0,0.95,0,1.44c-2.06,0-4.1,0-6.21,0C12.03,5.92,12.03,5.45,12.03,4.94z M9.65,8.07h8.53v6.8
	c-1.12,0-2.25,0-3.46,0c0-0.39,0-0.75,0-1.11c0-0.71-0.33-1.05-1.06-1.04c-1.31,0.02-2.61,0.01-4.01,0.01V8.07z M39.89,20.75
	c-1.12,0.85-2.52,1.23-3.92,1.24c-3.16,0.01-6.32,0-9.48,0c-5.96,0-11.93,0-17.89,0c-0.31,0-0.61,0-0.97,0
	c-0.35-2.58-0.69-5.08-1.04-7.64c2.19,0,4.32,0,6.55,0c0,0.3,0,0.58,0,0.86c0.02,1.1,0.19,1.29,1.28,1.29c4.03,0,8.06,0,12.08,0
	c1.25,0,2.5,0,3.75,0c0,0,0,0,0,0h3.89c0.1,0,0.21,0,0.31,0h0.21c0.01,0,0.02,0,0.04,0c0.01,0,0.02,0,0.02,0
	c0.46,0,0.83-0.37,0.83-0.83v-2.26h3.13h4.59C42.36,16.02,42.43,18.83,39.89,20.75z"/>
<g>
	<polygon class="st1" points="24.39,18.73 10.9,25.23 24.02,32.92 38.04,25.93 	"/>
	<path class="st2" d="M39.78,26.37c0.01-0.84-0.38-1.16-1.72-1.47c-4.32-1.02-8.35-2.98-11.82-5.75c-0.87-0.7-1.42-0.75-2.23-0.19
		c-3.87,2.67-8.1,4.72-12.6,6.09c-0.92,0.28-1.2,0.61-1.19,1.33c0.02,5.28,0.02,10.55,0,15.83c0,0.89,0.43,1.19,1.99,1.53
		c4.26,0.93,8.14,3.02,11.57,5.71c0.94,0.73,1.5,0.74,2.43,0.02c3.48-2.72,7.42-4.8,11.73-5.76c1.45-0.32,1.86-0.63,1.85-1.5
		c-0.02-2.64-0.01-5.28-0.01-7.92C39.77,31.65,39.76,29.01,39.78,26.37z M21.82,21.16c0.94-0.45,1.88-0.89,2.82-1.35
		c0.34-0.17,0.63-0.04,0.93,0.1c3.26,1.57,6.51,3.14,9.77,4.71c0.84,0.41,1.69,0.81,2.71,1.3c-0.52,0.25-1,0.48-1.47,0.7l0,0
		l-0.01,0c-0.67,0.32-1.31,0.62-1.95,0.93c-0.28,0.13-0.51-0.02-0.75-0.14c-3.4-1.64-6.81-3.28-10.21-4.92
		c-0.61-0.29-1.21-0.58-1.83-0.87C21.5,21.47,21.47,21.33,21.82,21.16z M20.02,22.09c0.21-0.09,0.4,0.04,0.58,0.13
		c4,1.92,8,3.85,11.99,5.78c0.14,0.07,0.36,0.09,0.36,0.28c0,0.05-0.02,0.09-0.05,0.12l-1.56,0.75c-0.81,0.3-1.2,0.12-2.56-0.54
		c-3.48-1.69-6.96-3.36-10.44-5.04c-0.19-0.09-0.43-0.14-0.6-0.42C18.51,22.79,19.26,22.43,20.02,22.09z M33.09,29.51
		c0.06-0.03,0.13-0.05,0.19-0.08c0.24-0.11,0.27,0.08,0.27,0.26c0,1.31,0,2.61,0,3.92c0,0.23-0.13,0.38-0.33,0.47
		c-0.55,0.27-1.1,0.53-1.65,0.81c-0.29,0.15-0.41,0.09-0.4-0.25c0.01-0.63,0-1.27,0-1.9c0-0.29-0.02-0.57,0-0.86
		c0.04-0.5-0.23-1.12,0.15-1.47c0.08-0.07,0.16-0.12,0.25-0.18L33.09,29.51z M24.46,47.93c0,0.73-0.02,0.75-0.66,0.44
		c-4.02-1.93-8.03-3.88-12.05-5.8c-0.37-0.18-0.48-0.42-0.48-0.82c0.01-4.77,0-9.53,0.01-14.3c0-0.63,0.03-0.65,0.62-0.36
		c2.64,1.27,5.28,2.54,7.92,3.81l0,0l3.4,1.64c0.07,0.05,0.15,0.1,0.25,0.12c0.01,0,0.01,0.01,0.02,0.01l0.54,0.26
		c0.4,0.32,0.47,0.81,0.46,1.44C24.44,38.88,24.47,43.4,24.46,47.93z M24.4,31.94c-0.15-0.1-0.33-0.16-0.5-0.24
		c-0.04-0.02-0.07-0.03-0.11-0.04l-2.48-1.21c0,0,0,0-0.01,0c-2.87-1.39-5.74-2.78-8.61-4.17c-0.19-0.09-0.43-0.14-0.59-0.41
		c0.81-0.39,1.66-0.71,2.41-1.19c1.22-0.79,2.27-0.76,3.59-0.07c3.72,1.93,7.53,3.68,11.31,5.48l-3.01,1.45l0,0.01
		c-0.27,0.13-0.54,0.26-0.8,0.4C25.18,32.16,24.81,32.2,24.4,31.94z M38.26,42.55c-4.04,1.94-8.07,3.9-12.1,5.84
		c-0.58,0.28-0.63,0.25-0.63-0.38c0-4.77,0-9.53-0.01-14.3c0-0.41,0.13-0.63,0.5-0.8c0.23-0.1,0.45-0.22,0.67-0.33l0,0.01l3.43-1.66
		c-0.02,1.52-0.01,3.03-0.01,4.55c0,0.92,0.31,1.12,1.13,0.74c0.89-0.42,1.76-0.87,2.66-1.27c0.52-0.23,0.73-0.55,0.72-1.13
		c-0.03-1.49,0-2.99-0.02-4.48c-0.01-0.35,0.1-0.57,0.34-0.74l2.08-1l-0.01-0.01c0.39-0.19,0.78-0.37,1.16-0.56
		c0.4-0.2,0.54-0.13,0.54,0.33c-0.01,4.83-0.01,9.66,0,14.48C38.72,42.21,38.57,42.4,38.26,42.55z"/>
</g>
</svg>
