<?xml version="1.0" encoding="utf-8"?>
<!-- Generator: Adobe Illustrator 27.2.0, SVG Export Plug-In . SVG Version: 6.00 Build 0)  -->
<svg version="1.1" id="Capa_1" xmlns="http://www.w3.org/2000/svg" xmlns:xlink="http://www.w3.org/1999/xlink" x="0px" y="0px"
	 viewBox="0 0 52 52" style="enable-background:new 0 0 52 52;" xml:space="preserve">
<style type="text/css">
    .st0{fill:#FFFFFF; stroke:#FFFFFF; stroke-width:3;} 
</style>
<path class="st0" d="M50,14.3c0.05-3.19-2.11-4.58-4.54-4.55c-6.81,0.08-13.62,0.03-20.43,0.03c-6.94,0-13.88-0.01-20.82,0
	C1.49,9.78,0,11.27,0,13.99c0,7.33,0,14.66,0,21.99c0,2.78,1.47,4.24,4.27,4.25c2.96,0.01,5.92,0,8.87,0v0h1.95
	c0.12,0,0.24,0,0.36,0c0.01,0,0.03,0,0.04,0h0.62h3.34H30.5h3.98c0,0,0,0,0.01,0c3.66,0,7.33-0.08,10.99,0.03
	c2.53,0.07,4.57-1.43,4.52-4.46C49.88,28.63,49.88,21.46,50,14.3z M45.25,12.24c-0.42,0.35-0.69,0.59-0.98,0.82
	c-5.76,4.63-11.52,9.25-17.28,13.88c-1.63,1.31-2.37,1.31-4.02-0.01C17.18,22.28,11.39,17.64,5.6,13c-0.25-0.2-0.48-0.42-0.87-0.76
	C18.31,12.24,31.66,12.24,45.25,12.24z M3.31,35.9c-0.2,0.15-0.41,0.44-0.66,0.34c-0.34-0.13-0.2-0.51-0.2-0.78
	C2.44,32,2.45,28.54,2.45,25.07c0-3.43,0-6.87,0.01-10.3c0-0.28-0.14-0.66,0.16-0.81c0.31-0.16,0.51,0.21,0.72,0.38
	c4.43,3.54,8.84,7.1,13.27,10.62c0.63,0.5,0.65,0.78-0.03,1.26C12.14,29.43,7.73,32.67,3.31,35.9z M44.17,37.77
	c-3.23,0.01-6.46,0-9.69,0.01v-0.01H16.12v0c-3.61,0-7.23,0-10.86,0c0.04-0.42,0.37-0.5,0.58-0.65c4.28-3.14,8.58-6.27,12.86-9.42
	c0.51-0.38,0.86-0.41,1.34,0.03c0.57,0.53,1.2,0.98,1.81,1.47c2.05,1.63,4.24,1.62,6.3-0.02c0.66-0.52,1.33-1.04,1.97-1.59
	c0.33-0.28,0.59-0.29,0.94-0.03c4.52,3.32,9.04,6.63,13.56,9.95c0.04,0.03,0.06,0.1,0.09,0.16C44.56,37.86,44.35,37.77,44.17,37.77z
	 M47.33,36.23c-0.28,0.14-0.51-0.21-0.74-0.37c-4.4-3.21-8.79-6.43-13.2-9.63c-0.66-0.48-0.68-0.75-0.04-1.27
	c4.59-3.65,9.16-7.34,13.73-11.01c0.07-0.06,0.16-0.1,0.38-0.22c0.02,0.38,0.04,0.63,0.04,0.89c0,6.91,0,13.81-0.01,20.72
	C47.5,35.64,47.67,36.06,47.33,36.23z"/>
</svg>
