<?xml version="1.0" encoding="utf-8"?>
<!-- Generator: Adobe Illustrator 26.0.0, SVG Export Plug-In . SVG Version: 6.00 Build 0)  -->
<svg version="1.1" id="Capa_1" xmlns="http://www.w3.org/2000/svg" xmlns:xlink="http://www.w3.org/1999/xlink" x="0px" y="0px"
	 viewBox="0 0 50 50" style="enable-background:new 0 0 50 50;" xml:space="preserve">
<style type="text/css">
		.st0{fill:#FFFFFF;stroke:#FFFFFF; stroke-width:2}
</style>
<path class="st0" d="M47.5,15.37c0.05-2.87-1.9-4.13-4.09-4.1c-6.13,0.07-12.26,0.03-18.39,0.03c-6.25,0-12.49,0-18.74,0
	c-2.45,0-3.78,1.35-3.79,3.79c0,6.6,0,13.19,0,19.79c0,2.5,1.32,3.82,3.84,3.82c2.66,0.01,5.32,0,7.99,0v0h1.76
	c0.11,0,0.22,0,0.33,0c0.01,0,0.02,0,0.04,0h0.56h3.01h9.94h3.58c0,0,0,0,0.01,0c3.3,0,6.6-0.07,9.89,0.02
	c2.27,0.06,4.11-1.29,4.07-4.01C47.39,28.27,47.39,21.82,47.5,15.37z M43.22,13.52c-0.38,0.32-0.62,0.53-0.88,0.74
	c-5.18,4.16-10.37,8.32-15.55,12.49c-1.47,1.18-2.13,1.18-3.62-0.01c-5.21-4.18-10.42-8.36-15.63-12.54
	c-0.22-0.18-0.43-0.37-0.79-0.68C18.98,13.52,30.99,13.52,43.22,13.52z M5.48,34.81c-0.18,0.13-0.37,0.39-0.59,0.31
	c-0.31-0.12-0.18-0.46-0.18-0.7C4.7,31.3,4.7,28.18,4.7,25.06c0-3.09,0-6.18,0-9.27c0-0.25-0.12-0.59,0.14-0.73
	c0.28-0.14,0.46,0.18,0.65,0.34c3.98,3.19,7.95,6.39,11.95,9.56c0.57,0.45,0.59,0.7-0.02,1.14C13.43,28.99,9.46,31.91,5.48,34.81z
	 M42.26,36.49c-2.91,0-5.82,0-8.72,0.01v-0.01H17.01v0c-3.25,0-6.5,0-9.78,0c0.04-0.38,0.33-0.45,0.52-0.59
	c3.86-2.83,7.73-5.64,11.57-8.48c0.46-0.34,0.78-0.37,1.2,0.03c0.51,0.47,1.08,0.88,1.63,1.32c1.84,1.46,3.82,1.46,5.67-0.02
	c0.59-0.47,1.19-0.94,1.77-1.43c0.29-0.25,0.53-0.26,0.85-0.03c4.07,2.99,8.14,5.97,12.21,8.95c0.04,0.03,0.05,0.09,0.08,0.15
	C42.61,36.57,42.42,36.49,42.26,36.49z M45.1,35.11c-0.25,0.13-0.46-0.19-0.66-0.33c-3.96-2.89-7.91-5.79-11.88-8.66
	c-0.59-0.43-0.61-0.68-0.03-1.14c4.13-3.29,8.24-6.61,12.36-9.91c0.07-0.05,0.15-0.09,0.34-0.2c0.02,0.34,0.04,0.57,0.04,0.8
	c0,6.22,0,12.43,0,18.65C45.25,34.58,45.4,34.95,45.1,35.11z"/>
</svg>
