<?xml version="1.0" encoding="utf-8"?>
<!-- Generator: Adobe Illustrator 27.2.0, SVG Export Plug-In . SVG Version: 6.00 Build 0)  -->
<svg version="1.1" id="Capa_1" xmlns="http://www.w3.org/2000/svg" xmlns:xlink="http://www.w3.org/1999/xlink" x="0px" y="0px"
	 viewBox="0 0 50 50" style="enable-background:new 0 0 50 50;" xml:space="preserve">
<style type="text/css">
	.st0{opacity:0.8;fill:#FFFFFF;}
</style>
<path class="st0" d="M50,25c0,3.6,0,7.3,0,10.9c0,8.1-6,14-14.1,14c-7.3,0-14.6,0-21.8,0C6,50,0,44,0,35.9c0-7.3,0-14.6,0-21.8
	C0,6,6,0,14.1,0c7.3,0,14.6,0,21.8,0C44,0,50,6,50,14.1C50,17.7,50,21.4,50,25L50,25z M38.7,25c0-7.6-6.2-13.7-13.7-13.7
	c-7.5,0.1-13.6,6.2-13.6,13.7c0,7.6,6.1,13.7,13.7,13.7C32.6,38.7,38.7,32.5,38.7,25L38.7,25z M39.5,14.6c2.3,0,4.2-1.9,4.2-4.1
	c0-2.2-1.9-4.2-4.2-4.2c-2.2,0-4.1,1.9-4.2,4.1C35.3,12.7,37.2,14.6,39.5,14.6z M25,16.1c-4.9,0-8.9,4-9,8.9c0,5,4,9,8.9,9
	c4.9,0,8.9-4,8.9-8.9C33.9,20.1,30,16.1,25,16.1z"/>
</svg>
