<?xml version="1.0" encoding="utf-8"?>
<!-- Generator: Adobe Illustrator 27.2.0, SVG Export Plug-In . SVG Version: 6.00 Build 0)  -->
<svg version="1.1" id="Capa_1" xmlns="http://www.w3.org/2000/svg" xmlns:xlink="http://www.w3.org/1999/xlink" x="0px" y="0px"
	 viewBox="0 0 52 52" style="enable-background:new 0 0 52 52;" xml:space="preserve">
<style type="text/css">
	.st0{opacity:0.8;}
	.st1{fill:#FFFFFF; stroke:#FFFFFF; stroke-width:2}
</style>
<g class="st0">
	<path class="st1" d="M24.9,0c12.5-0.2,23.4,9.4,24.9,21.8c1.7,13.5-7.5,25.8-20.9,27.9c-5.9,0.9-11.5-0.1-16.6-3.2
		C11.6,46,11,46,10.2,46.2c-2.5,0.8-5,1.6-7.5,2.4c-0.3,0.1-0.6,0.3-0.8,0.1c-0.3-0.3,0-0.6,0.1-0.9c0.8-2.5,1.6-4.9,2.5-7.4
		c0.2-0.6,0.2-1.1-0.2-1.6C-4.9,24.9,1.3,6.8,17,1.3C19.6,0.4,22.3-0.1,24.9,0z M32.5,38.7c4.2,0,6.9-2.1,7.4-5.7
		c0.1-0.6,0.2-1.3-0.5-1.6c-1.9-0.9-3.7-1.9-5.7-2.7c-0.8-0.3-1.4-0.1-1.8,0.6c-0.5,0.7-1,1.4-1.5,2c-0.8,1-1.3,1.1-2.5,0.6
		c-4.2-1.7-7.2-4.6-9.6-8.3c-0.4-0.7-0.3-1.3,0.2-1.9c0.5-0.6,1-1.1,1.5-1.7c0.4-0.5,0.5-1.1,0.3-1.7c-0.8-1.9-1.6-3.9-2.5-5.8
		c-0.2-0.4-0.4-0.7-0.8-0.8c-1.4-0.2-2.9-0.2-4,1c-1.9,2-2.6,4.4-2.1,7.2c0.5,2.6,1.8,4.7,3.4,6.8c3,4.1,6.5,7.7,11.2,9.8
		C27.8,37.6,30.3,38.6,32.5,38.7z"/>
</g>
</svg>
