<?xml version="1.0" encoding="utf-8"?>
<!-- Generator: Adobe Illustrator 26.0.0, SVG Export Plug-In . SVG Version: 6.00 Build 0)  -->
<svg version="1.1" id="Capa_1" xmlns="http://www.w3.org/2000/svg" xmlns:xlink="http://www.w3.org/1999/xlink" x="0px" y="0px"
	 viewBox="0 0 50 50" style="enable-background:new 0 0 50 50;" xml:space="preserve">
<style type="text/css">
		.st0{fill:#FFFFFF;stroke:#FFFFFF; stroke-width:2}
</style>
<path class="st0" d="M38.47,47.49c-2.14,0.09-3.91-0.83-5.69-1.64c-4.92-2.27-9.24-5.43-13.24-9.04
	C13.11,30.99,7.61,24.44,3.91,16.52c-0.73-1.57-1.45-3.14-1.39-4.95C2.6,8.87,3.69,6.74,5.93,5.24c1.16-0.78,2.38-1.47,3.63-2.11
	c2.41-1.25,5.09-0.6,6.63,1.64c1.28,1.87,2.51,3.78,3.68,5.71c1.31,2.15,1.01,4.52-0.71,6.34c-0.52,0.56-1.02,1.15-1.59,1.66
	c-0.82,0.73-0.79,1.53-0.37,2.43c0.67,1.47,1.6,2.76,2.61,4.01c1.85,2.29,3.89,4.39,6.23,6.18c0.56,0.42,1.14,0.82,1.74,1.17
	c2.17,1.29,2.72,1.22,4.51-0.53c0.29-0.28,0.57-0.56,0.86-0.84c1.86-1.76,4.23-2.06,6.42-0.72c1.9,1.16,3.79,2.37,5.63,3.62
	c2.25,1.54,2.93,4.3,1.66,6.71c-0.62,1.18-1.28,2.34-2.01,3.45C43.36,46.28,41.07,47.49,38.47,47.49z M45.59,38.16
	c0-1.33-0.4-2.13-1.55-2.9c-1.72-1.15-3.46-2.25-5.2-3.37c-1.59-1.02-3.07-0.89-4.48,0.38c-0.64,0.58-1.26,1.19-1.88,1.8
	c-0.94,0.93-2.03,1.18-3.31,0.84c-1.11-0.3-2.12-0.82-3.04-1.47c-3.94-2.78-7.25-6.2-9.84-10.25c-2.09-3.26-1.48-4.93,0.87-6.92
	c0.05-0.04,0.1-0.09,0.14-0.14c1.74-1.71,1.94-3.19,0.65-5.26C16.93,9.23,15.88,7.61,14.81,6c-1.11-1.67-2.77-2.11-4.51-1.19
	C9.18,5.41,8.07,6.03,7.01,6.73c-1.7,1.12-2.56,2.71-2.63,4.78c-0.05,1.54,0.59,2.85,1.21,4.18c3.49,7.49,8.63,13.72,14.62,19.32
	c4.63,4.32,9.82,7.76,15.69,10.14c0.93,0.38,1.89,0.54,2.92,0.52c3.64-0.07,5.81-4.37,6.75-7.18
	C45.61,38.37,45.58,38.23,45.59,38.16z"/>
</svg>
