<?xml version="1.0" encoding="utf-8"?>
<!-- Generator: Adobe Illustrator 27.2.0, SVG Export Plug-In . SVG Version: 6.00 Build 0)  -->
<svg version="1.1" id="Capa_1" xmlns="http://www.w3.org/2000/svg" xmlns:xlink="http://www.w3.org/1999/xlink" x="0px" y="0px"
	 viewBox="0 0 50 50" style="enable-background:new 0 0 50 50;" xml:space="preserve">
<style type="text/css">
	.st0{opacity:0.8;fill:#FFFFFF;}
</style>
<path class="st0" d="M50,25.1c0,6.5,0,13,0,19.4c0,3.4-2.1,5.5-5.5,5.5c-13,0-26,0-39.1,0C2.1,50,0,47.9,0,44.5c0-13,0-26,0-39.1
	C0,2.1,2.1,0,5.5,0c13,0,26,0,39.1,0C47.9,0,50,2.1,50,5.5C50,12,50,18.6,50,25.1z M27.5,42.5c0-0.5,0-0.8,0-1.2c0-3.8,0-7.7,0-11.5
	c0-0.5,0-1,0.1-1.5c0.5-1.8,2.2-3,4-2.8c1.8,0.2,3.3,1.8,3.3,3.6c0,3.8,0,7.5,0,11.3c0,0.6,0,1.2,0,1.9c0.4,0,0.6,0.1,0.9,0.1
	c1.9,0,3.8,0,5.7,0c0.7,0,1-0.2,0.9-0.9c0-2.7,0-5.4,0-8.1c0-2.1,0.1-4.3-0.1-6.4c-0.5-4.8-5.7-8.5-10.2-7.3
	c-1.8,0.5-3.3,1.5-4.6,3.2c0-1.1,0-2,0-2.9c-2.5,0-5,0-7.5,0c0,0.4,0,0.8,0,1.2c0,6.5,0,12.9,0,19.4c0,1.8,0,1.8,1.8,1.8
	C23.7,42.5,25.5,42.5,27.5,42.5z M15,20c-2.4,0-4.7,0-6.9,0c-0.2,0-0.5,0.4-0.5,0.7c0,7,0,14.1,0,21.1c0,0.6,0.2,0.7,0.7,0.7
	c0.9,0,1.9,0,2.8,0c1.3,0,2.6,0,3.9,0C15,35,15,27.5,15,20z M6.8,11.1c-0.1,2.5,1.9,4.6,4.4,4.6c2.4,0.1,4.5-1.9,4.6-4.4
	c0.1-2.4-1.9-4.5-4.4-4.6C8.9,6.7,6.9,8.6,6.8,11.1z"/>
</svg>
