<?xml version="1.0" encoding="utf-8"?>
<!-- Generator: Adobe Illustrator 27.2.0, SVG Export Plug-In . SVG Version: 6.00 Build 0)  -->
<svg version="1.1" id="Capa_1" xmlns="http://www.w3.org/2000/svg" xmlns:xlink="http://www.w3.org/1999/xlink" x="0px" y="0px"
	 viewBox="0 0 52 52" style="enable-background:new 0 0 52 52;" xml:space="preserve">
<style type="text/css">
	.st0{fill:#FFFFFF;stroke:#FFFFFF; stroke-width:2}
</style>
<path class="st0" d="M39.97,49.99c-2.38,0.1-4.35-0.92-6.32-1.83c-5.46-2.52-10.27-6.03-14.71-10.05
	C11.79,31.65,5.68,24.38,1.56,15.57c-0.81-1.74-1.61-3.49-1.55-5.5c0.09-2.99,1.31-5.37,3.79-7.03C5.1,2.18,6.46,1.41,7.83,0.7
	c2.68-1.39,5.66-0.67,7.37,1.82c1.42,2.08,2.78,4.2,4.09,6.35c1.45,2.38,1.12,5.02-0.78,7.05c-0.58,0.62-1.13,1.28-1.77,1.84
	c-0.91,0.81-0.87,1.7-0.42,2.7c0.74,1.63,1.78,3.07,2.9,4.46c2.05,2.55,4.32,4.88,6.92,6.87c0.62,0.47,1.26,0.91,1.93,1.31
	c2.41,1.43,3.02,1.35,5.01-0.59c0.32-0.31,0.63-0.63,0.95-0.93c2.06-1.96,4.7-2.29,7.13-0.8c2.12,1.29,4.21,2.63,6.26,4.03
	c2.5,1.71,3.25,4.77,1.85,7.46c-0.68,1.31-1.43,2.6-2.23,3.84C45.4,48.64,42.86,49.99,39.97,49.99z M47.88,39.62
	c0-1.48-0.44-2.37-1.72-3.22c-1.91-1.27-3.85-2.5-5.78-3.74c-1.77-1.13-3.41-0.99-4.98,0.42c-0.71,0.65-1.4,1.32-2.08,2
	c-1.05,1.03-2.26,1.32-3.67,0.93c-1.23-0.34-2.35-0.91-3.38-1.64c-4.37-3.09-8.05-6.89-10.93-11.38c-2.32-3.62-1.64-5.47,0.97-7.69
	c0.06-0.05,0.11-0.1,0.16-0.15c1.93-1.9,2.15-3.54,0.72-5.84c-1.14-1.82-2.31-3.62-3.5-5.41c-1.23-1.85-3.08-2.34-5.01-1.32
	C7.42,3.23,6.19,3.93,5.02,4.7c-1.89,1.25-2.85,3.02-2.92,5.31c-0.06,1.72,0.65,3.16,1.34,4.64c3.88,8.32,9.59,15.25,16.25,21.47
	c5.14,4.8,10.91,8.62,17.43,11.27c1.04,0.42,2.1,0.6,3.24,0.58c4.04-0.08,6.45-4.85,7.5-7.98C47.9,39.86,47.87,39.7,47.88,39.62z"/>
</svg>
