<?xml version="1.0" encoding="utf-8"?>
<!-- Generator: Adobe Illustrator 26.0.0, SVG Export Plug-In . SVG Version: 6.00 Build 0)  -->
<svg version="1.1" id="Capa_1" xmlns="http://www.w3.org/2000/svg" xmlns:xlink="http://www.w3.org/1999/xlink" x="0px" y="0px"
	 viewBox="0 0 50 50" style="enable-background:new 0 0 50 50;" xml:space="preserve">
<style type="text/css">
		.st0{fill:#FFFFFF;stroke:#FFFFFF; stroke-width:2}
</style>
<path class="st0" d="M25.11,2.53c-3.24-0.12-6.18,0.51-8.89,2.02C11.83,6.99,9.8,10.9,9.47,15.79c-0.34,4.98,1.12,9.56,3.19,13.98
	c2.93,6.26,6.87,11.87,11.36,17.1c0.67,0.78,1.23,0.83,1.85,0.11c5.37-6.29,10.04-13.02,12.96-20.83c1.43-3.82,2.15-7.77,1.52-11.85
	c-0.91-5.93-4.41-9.56-10.12-11.18C28.52,2.64,26.76,2.42,25.11,2.53z M11.12,16.95c0.04-0.5,0.09-1.24,0.18-1.97
	c0.51-4.03,2.35-7.19,6.07-9.06c3.15-1.58,6.51-2.01,9.97-1.56c8.13,1.06,11.57,6.01,11.51,13.18c-0.02,2.98-0.79,5.86-1.89,8.64
	c-2.73,6.87-6.83,12.9-11.47,18.59c-0.51,0.63-0.74,0.29-1.08-0.12c-4.01-4.87-7.54-10.05-10.23-15.77
	C12.44,25.17,11.24,21.32,11.12,16.95z M25.06,25.83c4.81-0.01,8.52-3.79,8.5-8.65c-0.02-4.79-3.8-8.48-8.69-8.47
	c-4.74,0.02-8.46,3.8-8.45,8.6C16.44,22.12,20.21,25.84,25.06,25.83z M18.09,17.32c-0.05-3.7,3.13-6.91,6.88-6.94
	c3.7-0.03,6.82,3.03,6.93,6.79c0.11,3.67-3.05,6.91-6.83,7C21.39,24.25,18.14,21.07,18.09,17.32z"/>
</svg>
