<?xml version="1.0" encoding="utf-8"?>
<!-- Generator: Adobe Illustrator 27.2.0, SVG Export Plug-In . SVG Version: 6.00 Build 0)  -->
<svg version="1.1" id="Capa_1" xmlns="http://www.w3.org/2000/svg" xmlns:xlink="http://www.w3.org/1999/xlink" x="0px" y="0px"
	 viewBox="0 0 50 50" style="enable-background:new 0 0 50 50;" xml:space="preserve">
<style type="text/css">
	.st0{opacity:0.8;}
	.st1{fill:#FFFFFF;}
</style>
<g class="st0">
	<path class="st1" d="M0,25c0-6.2,0-12.3,0-18.5C0,2.6,2.7,0,6.5,0c12.3,0,24.6,0,36.9,0C47.3,0,50,2.6,50,6.5c0,12.3,0,24.7,0,37
		c0,3.8-2.7,6.5-6.5,6.5c-2.7,0-5.5,0-8.2,0c-0.8,0-1.1-0.2-1.1-1.1c0-5.1,0-10.1,0-15.2c0-0.8,0.3-1.1,1.1-1.1c0.9,0.1,1.9,0,2.8,0
		c0.6,0,0.9-0.2,1.1-0.7c0.8-2,1.6-4,2.4-6.1c0.3-0.6,0.1-0.9-0.6-0.9c-1.9,0-3.9,0-5.8,0c-0.7,0-1-0.2-1-1c0-1.8,0-3.5,0-5.3
		c0-1.2,0.5-1.7,1.7-1.7c1.2,0,2.4,0,3.6,0c0.7,0,0.9-0.2,0.9-0.9c0-1.9,0-3.9,0-5.8c0-0.7-0.2-0.9-0.9-0.9
		c-2.1,0.1-4.2-0.1-6.3,0.1c-4.2,0.4-7.7,3.9-8.1,8.1c-0.2,2.1-0.1,4.2-0.1,6.3c0,0.8-0.3,1.1-1.1,1.1c-1.4,0-2.9,0-4.3,0
		c-0.7,0-0.9,0.2-0.9,0.9c0,1.9,0,3.9,0,5.8c0,0.8,0.3,0.9,1,0.9c1.4,0,2.9,0,4.3,0c0.7,0,1,0.2,1,0.9c0,5.1,0,10.3,0,15.4
		c0,0.7-0.2,1-0.9,1c-6.1,0-12.2,0-18.3,0c-3.1,0-5.8-2.9-5.8-6.1C0,37.6,0,31.3,0,25z"/>
</g>
</svg>
