<?xml version="1.0" encoding="utf-8"?>
<!-- Generator: Adobe Illustrator 27.2.0, SVG Export Plug-In . SVG Version: 6.00 Build 0)  -->
<svg version="1.1" id="Capa_1" xmlns="http://www.w3.org/2000/svg" xmlns:xlink="http://www.w3.org/1999/xlink" x="0px" y="0px"
	 viewBox="0 0 52 52" style="enable-background:new 0 0 52 52;" xml:space="preserve">
<style type="text/css">
	.st0{fill:#FFFFFF; stroke:#FFFFFF; stroke-width:2}
</style>
<path class="st0" d="M24.88,0.03c3.6-0.14,6.87,0.57,9.88,2.25c4.88,2.71,7.13,7.06,7.5,12.49c0.37,5.53-1.24,10.62-3.54,15.54
	c-3.26,6.96-7.63,13.19-12.63,19c-0.75,0.87-1.37,0.92-2.05,0.12c-5.96-6.99-11.16-14.47-14.4-23.14
	c-1.59-4.25-2.38-8.63-1.69-13.17C8.95,6.53,12.85,2.5,19.18,0.7C21.09,0.16,23.04-0.09,24.88,0.03z M40.43,16.06
	c-0.05-0.56-0.1-1.38-0.2-2.19c-0.56-4.48-2.61-7.99-6.75-10.07c-3.5-1.76-7.23-2.23-11.08-1.73C13.37,3.24,9.54,8.74,9.61,16.71
	c0.03,3.31,0.87,6.52,2.1,9.6c3.03,7.64,7.58,14.33,12.75,20.66c0.57,0.7,0.82,0.33,1.2-0.14c4.45-5.41,8.38-11.16,11.37-17.52
	C38.96,25.19,40.28,20.91,40.43,16.06z M24.93,25.92c-5.34-0.01-9.46-4.21-9.45-9.61c0.02-5.33,4.23-9.43,9.65-9.41
	c5.27,0.02,9.4,4.22,9.39,9.56C34.51,21.8,30.33,25.93,24.93,25.92z M32.68,16.47c0.06-4.11-3.48-7.68-7.65-7.71
	c-4.11-0.03-7.58,3.37-7.7,7.55c-0.12,4.08,3.39,7.67,7.59,7.77C29.01,24.17,32.62,20.64,32.68,16.47z"/>
</svg>
