<?xml version="1.0" encoding="utf-8"?>
<!-- Generator: Adobe Illustrator 27.2.0, SVG Export Plug-In . SVG Version: 6.00 Build 0)  -->
<svg version="1.1" id="Capa_1" xmlns="http://www.w3.org/2000/svg" xmlns:xlink="http://www.w3.org/1999/xlink" x="0px" y="0px"
	 viewBox="0 0 50 50" style="enable-background:new 0 0 50 50;" xml:space="preserve">
<style type="text/css">
	.st0{fill:#FFFFFF;}
</style>
<path class="st0" d="M24.27-25.59"/>
<path class="st0" d="M24.27,80.92"/>
<path class="st0" d="M25.68,10.22c-0.08-0.14-0.17-0.27-0.26-0.4c0.01,0,0.01-0.01,0.02-0.01c-0.35-0.49-0.77-0.92-1.24-1.28
	c-0.05-0.04-0.1-0.08-0.15-0.11c-0.02-0.01-0.04-0.03-0.06-0.04c-0.08-0.05-0.16-0.11-0.24-0.15c-0.01-0.01-0.02-0.01-0.03-0.02
	c-0.06-0.04-0.12-0.07-0.18-0.1c-0.81-0.45-1.71-0.7-2.63-0.67c-0.44,0.02-0.64-0.13-0.67-0.61c-0.09-1.19-0.67-1.77-1.85-1.86
	c-0.47-0.03-0.63-0.21-0.62-0.66c0-0.18,0-0.36,0-0.55h0V0.91h0c0,0,0-0.01,0-0.01V0.45c0-0.25-0.2-0.45-0.45-0.45H14.4
	c-0.25,0-0.45,0.2-0.45,0.45V0.9c0,0,0,0.01,0,0.01h0v3.26c0,0.06,0,0.14,0,0.19v0.03h-0.01c-0.04,0.38-0.23,0.58-0.78,0.59
	C12.23,5,11.52,5.72,11.5,6.68c-0.01,0.65-0.29,0.75-0.85,0.77c-2.04,0.07-3.57,1.04-4.63,2.77c-1.01,1.66-0.93,3.49-0.61,5.26
	c0.33,1.84,1.39,3.12,2.96,3.86c0,0,0,0,0,0c0,0,0,0,0,0c0,0,0,0,0,0c1.23,0.66,2.6,0.86,3.28-0.16c1.16-1.74-0.23-2.26-1.63-3.31
	c-0.1-0.04-0.26-0.17-0.37-0.27c-0.63-0.55-0.79-2.07-0.39-3.16c0.32-0.88,1.05-1.14,1.9-1.18c0.33-0.02,0.67,0,1,0c0,0,0,0,0,0
	c0.18,0,0.36,0.02,0.54,0c0.79-0.1,1.28,0.01,1.3,1.04c0.02,0.9,0.99,1.48,1.98,1.43c0.92-0.05,1.72-0.72,1.74-1.64
	c0.02-0.71,0.29-0.88,0.93-0.84c0.63,0.04,1.27-0.01,1.9,0.02c0,0,0,0,0,0c0.83,0.05,1.54,0.31,1.85,1.18
	c0.4,1.09,0.24,2.61-0.39,3.16c-0.11,0.1-0.26,0.22-0.37,0.27c-1.4,1.05-2.79,1.57-1.63,3.31c0.68,1.03,2.05,0.82,3.28,0.16
	c0,0,0,0,0,0c0,0,0,0,0,0c0,0,0,0,0,0c1.58-0.74,2.63-2.03,2.96-3.86C26.62,13.71,26.7,11.88,25.68,10.22z M16.43,1.68v2.94
	c0,0.18-0.15,0.33-0.33,0.33h-0.46c-0.18,0-0.33-0.15-0.33-0.33V1.68c0-0.18,0.15-0.33,0.33-0.33h0.46
	C16.28,1.35,16.43,1.5,16.43,1.68z M13.41,9.9c-0.85-0.01-1.7-0.01-2.55,0C9.09,9.94,7.8,11.23,7.76,13c-0.01,0.46,0,0.93,0,1.39
	c0.01,1.3,0.68,2.18,1.78,2.78c0.03,0.01,0.05,0.03,0.08,0.04l0,0.01c0.01,0,0.02,0.01,0.03,0.01c0.45,0.26,0.88,0.4,0.63,0.9
	c-0.18,0.37-0.77,0.22-1.22-0.04c-0.06-0.03-0.11-0.07-0.16-0.11c-1.11-0.59-1.83-1.53-2.12-2.85c-0.24-1.1-0.21-2.22,0.09-3.29
	c0.49-1.79,2.12-2.94,4.21-3.05c0.36-0.02,0.72,0,1.08,0c0,0,0,0,0,0c0.41,0,0.83,0.01,1.24,0c0.39-0.01,0.56,0.16,0.55,0.56
	C13.96,9.72,13.82,9.91,13.41,9.9z M16.42,10.42C16.42,10.42,16.42,10.42,16.42,10.42c0,0.41,0.01,0.82-0.01,1.23
	c-0.01,0.33-0.15,0.64-0.52,0.66c-0.38,0.02-0.56-0.27-0.57-0.6c-0.03-0.82-0.01-1.65-0.01-2.47c0-0.39,0.25-0.45,0.57-0.45
	c0.34,0,0.55,0.1,0.54,0.48C16.42,9.65,16.42,10.03,16.42,10.42z M15.9,7.43c-0.77,0-1.54,0.01-2.31-0.01
	c-0.3-0.01-0.74,0.13-0.74-0.41c0.01-0.47,0.31-0.69,0.76-0.7c0.62-0.01,1.23-0.01,1.85-0.01c0.85,0,1.69,0,2.54,0
	c0.5,0,0.9,0.16,0.88,0.72c-0.01,0.58-0.51,0.38-0.83,0.39C17.33,7.45,16.62,7.43,15.9,7.43z M24.94,15.13
	c-0.29,1.32-1.01,2.26-2.12,2.85c-0.05,0.04-0.1,0.07-0.16,0.11c-0.45,0.26-1.03,0.41-1.22,0.04c-0.25-0.5,0.17-0.64,0.63-0.9
	c0.01-0.01,0.02-0.01,0.03-0.01l0-0.01c0.03-0.01,0.05-0.02,0.08-0.04c1.09-0.6,1.77-1.48,1.78-2.78c0-0.46,0.01-0.93,0-1.39
	c-0.01-0.71-0.23-1.35-0.6-1.85c0,0,0.01-0.01,0.01-0.01c-0.39-0.53-0.94-0.91-1.62-1.1c-0.01,0-0.02-0.01-0.03-0.01
	c-0.07-0.02-0.14-0.03-0.21-0.05c-0.03-0.01-0.06-0.01-0.09-0.02c-0.21-0.04-0.43-0.06-0.66-0.06c-0.77-0.01-1.55-0.01-2.32,0
	c-0.38,0-0.64-0.06-0.65-0.54c-0.01-0.51,0.26-0.61,0.68-0.59c0.39,0.02,0.77,0,1.3,0c0.6-0.02,1.22,0,1.81,0.12
	c0,0.01,0,0.01-0.01,0.02c1.02,0.22,1.88,0.71,2.48,1.42c0,0.01,0.01,0.01,0.01,0.02c0.03,0.04,0.06,0.07,0.09,0.11
	c0.03,0.04,0.06,0.08,0.09,0.11c0,0,0,0,0,0c0.27,0.37,0.48,0.8,0.61,1.26C25.14,12.92,25.18,14.03,24.94,15.13z M24.99,41.34
	c-1.51,0.01-2.9,1.42-2.89,2.92c0.01,1.53,1.4,2.89,2.92,2.88c1.54-0.01,2.91-1.39,2.89-2.91C27.89,42.72,26.49,41.33,24.99,41.34z
	 M24.99,45.61c-0.75-0.01-1.29-0.53-1.3-1.28c-0.02-0.73,0.61-1.38,1.33-1.37c0.69,0.01,1.29,0.62,1.3,1.32
	C26.33,45.06,25.78,45.61,24.99,45.61z M42.54,38.98c-0.71-0.24-0.89-0.59-0.88-1.29c0.03-3.14,0.02-6.27,0.01-9.41
	c0-1.16-0.18-1.35-1.34-1.35c-3.31-0.01-6.61-0.01-9.92,0c-1.17,0-1.35,0.19-1.35,1.33c0,2.94,0,5.87,0,8.81
	c0,1.52,0,1.52-1.53,1.52c-5.93,0-11.86-0.02-17.79,0.01c-3.46,0.02-6.07,2.49-6.07,5.65c0,3.38,2.87,5.83,6.13,5.74
	c5.04-0.14,10.09-0.04,15.14-0.04c5.25,0,10.49,0.01,15.74,0c2.74-0.01,5.1-1.94,5.57-4.53C46.76,42.59,45.24,39.89,42.54,38.98z
	 M35.39,28.52c0.53,0,0.91,0.09,0.82,0.74c0.09,0.62-0.24,0.77-0.79,0.78c-0.57,0-0.82-0.2-0.81-0.79
	C34.62,28.69,34.87,28.52,35.39,28.52z M30.53,29.39c0-0.61,0.18-0.93,0.82-0.86c0.03,0,0.06,0,0.09,0
	c1.57-0.04,1.57-0.04,1.59,1.56c0.01,1.33,0.21,1.53,1.54,1.54c0.68,0,1.37-0.01,2.05,0c0.74,0.01,1.12-0.33,1.1-1.09
	c0-0.14,0-0.29,0-0.43c0.01-1.6,0.39-1.89,1.98-1.58c0.48,0.09,0.48,0.41,0.48,0.76c0,1.42,0,2.85,0,4.27c0,1.4-0.02,2.79,0.01,4.19
	c0.01,0.64-0.23,0.85-0.85,0.85c-2.65-0.02-5.3-0.02-7.95,0c-0.61,0-0.87-0.19-0.86-0.84C30.55,34.97,30.55,32.18,30.53,29.39z
	 M40.48,48.47c-5.48,0.01-10.95,0.01-16.43,0.01c-4.85,0-9.7,0.01-14.54-0.01c-2.36-0.01-4.2-1.7-4.3-3.9
	c-0.11-2.41,1.7-4.36,4.15-4.37c5.22-0.02,10.44-0.01,15.66-0.01c5.19,0,10.38-0.01,15.57,0c2.43,0.01,4.26,1.86,4.22,4.22
	C44.76,46.7,42.92,48.46,40.48,48.47z M18.12,41.35c-1.52-0.02-2.9,1.34-2.91,2.88c-0.01,1.53,1.34,2.91,2.87,2.92
	c1.57,0.01,2.87-1.29,2.87-2.88C20.96,42.67,19.71,41.37,18.12,41.35z M18.09,45.61c-0.78,0-1.28-0.5-1.28-1.28
	c0-0.78,0.58-1.38,1.32-1.37c0.66,0.01,1.31,0.66,1.32,1.32C19.47,45.02,18.87,45.61,18.09,45.61z M38.85,41.34
	c-1.53,0.01-2.89,1.39-2.87,2.93c0.02,1.55,1.35,2.87,2.91,2.88c1.49,0.01,2.9-1.42,2.88-2.92C41.76,42.71,40.36,41.33,38.85,41.34z
	 M38.9,45.61c-0.78,0.01-1.36-0.56-1.34-1.32c0.02-0.68,0.64-1.32,1.3-1.33c0.72-0.01,1.34,0.63,1.33,1.37
	C40.19,45.07,39.66,45.6,38.9,45.61z M11.15,41.34c-1.51-0.01-2.91,1.38-2.92,2.89c-0.01,1.51,1.4,2.93,2.89,2.92
	c1.56-0.01,2.89-1.34,2.91-2.89C14.03,42.72,12.68,41.35,11.15,41.34z M11.15,45.61c-0.8,0.01-1.35-0.54-1.33-1.32
	c0.02-0.71,0.6-1.31,1.29-1.33c0.69-0.01,1.35,0.66,1.35,1.38C12.45,45.06,11.9,45.6,11.15,45.61z M10.13,36.74
	c1.91,0.01,3.82,0,5.73,0s3.82,0.01,5.73,0c1.1-0.01,1.35-0.26,1.36-1.37c0-0.29,0-0.58,0-0.86h-0.02V23.17
	c-0.04-0.95-0.31-1.2-1.35-1.2c-3.79-0.01-7.58-0.01-11.37,0c-1.1,0-1.33,0.18-1.35,1.16v5.94c0,0.05,0,0.1,0,0.15v3.3H8.85v3.47
	h0.02C8.92,36.56,9.29,36.74,10.13,36.74z M15.96,23.53c0.76-0.01,0.96,0.29,0.95,1c-0.01,0.73-0.12,1.2-0.96,0.97
	c-0.85,0.18-1.04-0.22-1.05-0.97C14.89,23.72,15.23,23.55,15.96,23.53z M11.21,23.54c2.53,0.04,2.08-0.24,2.12,2.06
	c0.02,1.24,0.19,1.42,1.45,1.42c0.88,0,1.77,0,2.65-0.01c0.62,0,0.95-0.32,0.95-0.95c0-0.6,0.02-1.2,0-1.79
	c-0.02-0.51,0.21-0.72,0.71-0.71c2.75,0.02,2.22-0.28,2.26,2.07c0.02,1.25,0,2.51,0,3.76c0,1.62-0.03,3.25,0.01,4.87
	c0.01,0.68-0.23,0.89-0.89,0.88c-3.11-0.03-6.21-0.03-9.32,0c-0.64,0.01-0.83-0.23-0.83-0.85c0.02-3.28,0.02-6.55,0-9.83
	C10.33,23.81,10.53,23.53,11.21,23.54z M31.9,41.35c-1.59,0.02-2.85,1.31-2.85,2.92c0.01,1.6,1.3,2.89,2.88,2.89
	c1.53-0.01,2.88-1.38,2.87-2.92C34.79,42.65,33.45,41.33,31.9,41.35z M31.92,45.61c-0.78,0-1.38-0.58-1.37-1.33
	c0.01-0.66,0.67-1.31,1.33-1.32c0.75-0.01,1.32,0.59,1.32,1.38C33.2,45.12,32.71,45.61,31.92,45.61z"/>
</svg>
