<?xml version="1.0" encoding="utf-8"?>
<!-- Generator: Adobe Illustrator 27.2.0, SVG Export Plug-In . SVG Version: 6.00 Build 0)  -->
<svg version="1.1" id="Capa_1" xmlns="http://www.w3.org/2000/svg" xmlns:xlink="http://www.w3.org/1999/xlink" x="0px" y="0px"
	 viewBox="0 0 50 50" style="enable-background:new 0 0 50 50;" xml:space="preserve">
<style type="text/css">
	.st0{fill:#FFFFFF;}
</style>
<path class="st0" d="M24.27-25.59"/>
<path class="st0" d="M24.27,80.92"/>
<path class="st0" d="M48.93,19.81c-0.11-0.18-0.23-0.35-0.34-0.52c0.01-0.01,0.02-0.01,0.03-0.02c-0.45-0.63-1-1.19-1.61-1.65
	c-0.07-0.05-0.13-0.1-0.2-0.15c-0.02-0.02-0.05-0.03-0.07-0.05c-0.1-0.07-0.2-0.14-0.31-0.2c-0.01-0.01-0.03-0.02-0.04-0.02
	c-0.08-0.05-0.15-0.09-0.23-0.13c-1.04-0.58-2.22-0.9-3.41-0.86c-0.57,0.02-0.82-0.17-0.87-0.79c-0.11-1.54-0.86-2.3-2.39-2.4
	c-0.61-0.04-0.82-0.27-0.8-0.86c0.03-1,0-2,0.01-3.01c0-0.29-0.06-0.67,0.29-0.79c1.35-0.47,1.34-1.56,1.32-2.71
	c-0.03-1.79-0.48-2.28-2.25-2.28c-2.87,0-5.75-0.01-8.62,0.01c-0.59,0-0.97-0.17-1.32-0.68c-1.38-2.05-3.73-2.97-6.02-2.43
	c-2.34,0.55-4.03,2.37-4.38,4.79c-0.08,0.53-0.31,0.84-0.72,1.11c-3.08,2.12-6.16,4.24-9.24,6.37C7.41,12.79,7.04,12.94,6.59,13
	c-3.06,0.41-5.23,2.05-6.18,4.99c-0.95,2.92-0.23,5.55,2.01,7.68c0.46,0.44,0.73,0.91,0.87,1.52c0.79,3.31,1.6,6.62,2.41,9.92
	c0.42,1.73,0.41,1.79-1.37,1.49c-0.93-0.16-1.08,0.19-1.08,0.99c0.03,3.11,0.04,6.21-0.01,9.32c-0.01,0.91,0.32,1.14,1.17,1.12
	c2.57-0.04,5.14-0.02,7.72-0.02c2.57,0,5.14-0.03,7.72,0.02c0.88,0.01,1.27-0.21,1.22-1.17c-0.07-1.4-0.01-2.81-0.02-4.21
	c-0.02-1.78-1.18-3.37-2.89-3.9c-0.87-0.27-1.15-0.73-1.24-2.07c-0.28-4.17-1.37-8.26-3.3-11.97c-0.56-1.08-0.65-1.71-0.16-2.45
	c0.81-1.19,1.25-2.52,1.18-3.97c-0.03-0.56,0.16-1.12,0.54-1.53c2.03-2.21,4.06-4.44,6.05-6.69c0.42-0.47,0.81-0.66,1.45-0.6
	c2.36,0.23,4.26-0.61,5.55-2.64c0.3-0.48,0.69-0.6,1.35-0.5c1,0.16,2.02,0.12,3.02-0.01c0.93-0.12,1.2,0.16,1.13,0.97
	c-0.06,0.75-0.08,1.5-0.01,2.25c0.09,0.96,0,1.44-1,1.46c-1.22,0.02-2.13,0.96-2.16,2.2c-0.02,0.84-0.37,0.97-1.1,0.99
	c-2.65,0.09-4.62,1.35-5.99,3.59c-1.31,2.15-1.21,4.53-0.79,6.81c0.43,2.38,1.8,4.04,3.84,5c0,0,0,0,0,0
	c1.6,0.86,3.36,1.12,4.25-0.21c1.5-2.25-0.3-2.93-2.11-4.28c-0.13-0.06-0.33-0.22-0.48-0.34c-0.81-0.72-1.02-2.69-0.51-4.09
	c0.42-1.14,1.36-1.48,2.46-1.53c0.43-0.02,0.87,0,1.3,0c0,0,0,0,0,0c0.23,0,0.47,0.02,0.7,0c1.03-0.13,1.66,0.02,1.69,1.35
	c0.02,1.16,1.28,1.92,2.57,1.86c1.2-0.06,2.22-0.93,2.25-2.13c0.02-0.92,0.38-1.14,1.21-1.09c0.82,0.06,1.65-0.01,2.47,0.03
	c0,0,0,0,0,0c1.08,0.06,1.99,0.41,2.4,1.53c0.52,1.41,0.31,3.38-0.51,4.09c-0.15,0.13-0.34,0.29-0.48,0.34
	c-1.81,1.35-3.61,2.03-2.11,4.28c0.89,1.33,2.65,1.07,4.25,0.21c0,0,0,0,0,0c2.04-0.96,3.41-2.63,3.84-5
	C50.14,24.33,50.24,21.95,48.93,19.81z M1.85,20.32c-0.06-2.95,2.45-5.5,5.45-5.55c2.95-0.05,5.49,2.45,5.55,5.45
	c0.05,2.95-2.44,5.49-5.45,5.55C4.45,25.83,1.91,23.33,1.85,20.32z M17.21,42.41c1.25,0.19,1.99,1.07,2.07,2.46
	c0.05,0.83-0.02,1.67,0.03,2.5c0.04,0.73-0.29,0.91-0.96,0.9c-2.07-0.03-4.14-0.01-6.21-0.01c-2.04,0-4.08-0.02-6.11,0.01
	c-0.7,0.01-1.04-0.16-1.02-0.95c0.04-1.97,0.02-3.94,0.01-5.91c-0.01-0.6,0.14-0.82,0.82-0.71C9.62,41.3,13.42,41.83,17.21,42.41z
	 M15.12,39.54c0.11,0.39,0.19,0.78-0.51,0.61c-1.96-0.29-3.97-0.61-5.98-0.89c-0.46-0.07-0.6-0.35-0.69-0.73
	c-0.84-3.47-1.69-6.93-2.53-10.4c-0.13-0.53-0.1-0.78,0.61-0.66c1.65,0.27,3.27,0.13,4.75-0.74c0.51-0.3,0.76-0.22,0.92,0.37
	C12.83,31.24,13.98,35.39,15.12,39.54z M19.21,11.58c-1.55,1.65-3.04,3.36-4.58,5.04c-0.2,0.22-0.48,0.79-0.82,0.18
	c-0.89-1.56-2.15-2.69-3.99-3.42c1.47-1.03,2.78-1.94,4.09-2.84c1.12-0.78,2.26-1.54,3.38-2.33c0.46-0.33,0.74-0.28,1.01,0.24
	c0.25,0.47,0.51,1.01,0.92,1.29C20.21,10.42,19.84,10.92,19.21,11.58z M23.38,9.73c-2.1-0.01-3.92-1.84-3.89-3.93
	c0.03-2.11,1.88-3.92,3.95-3.86c2.09,0.06,3.82,1.81,3.84,3.88C27.29,7.92,25.47,9.74,23.38,9.73z M33.71,6.57
	c-1.24,0-2.47,0-3.71,0c-0.5,0-0.93,0.01-0.94-0.7c-0.01-0.67,0.35-0.76,0.89-0.76c2.57,0.01,5.14,0.01,7.71,0
	c0.54,0,0.9,0.09,0.89,0.76c-0.01,0.71-0.44,0.71-0.94,0.7C36.31,6.56,35.01,6.57,33.71,6.57z M36.94,10.74c0,0.53-0.01,1.07,0,1.6
	c0.01,0.48-0.25,0.63-0.69,0.64c-0.58,0.01-0.87-0.2-0.72-1.06c0.15-0.85,0.13-1.71-0.01-2.56c-0.14-0.81,0.12-1.04,0.71-1.05
	c0.52,0,0.72,0.22,0.71,0.73C36.93,9.61,36.94,10.18,36.94,10.74z M33.04,19.4c-1.1-0.01-2.2-0.01-3.31,0
	c-2.3,0.04-3.97,1.71-4.01,4c-0.01,0.6-0.01,1.2,0,1.8c0.01,1.68,0.88,2.82,2.3,3.6c0.03,0.02,0.07,0.03,0.1,0.05l0,0.01
	c0.01,0.01,0.02,0.01,0.03,0.02c0.59,0.34,1.14,0.52,0.81,1.17c-0.24,0.47-0.99,0.29-1.58-0.05c-0.07-0.04-0.14-0.09-0.21-0.14
	c-1.44-0.77-2.37-1.98-2.74-3.69c-0.31-1.43-0.27-2.87,0.12-4.27c0.64-2.32,2.75-3.81,5.45-3.95c0.47-0.02,0.94,0,1.4,0c0,0,0,0,0,0
	c0.53,0,1.07,0.01,1.6,0c0.51-0.01,0.72,0.21,0.72,0.72C33.74,19.16,33.56,19.4,33.04,19.4z M36.94,20.06
	C36.93,20.06,36.93,20.06,36.94,20.06c-0.01,0.53,0.01,1.07-0.01,1.6c-0.02,0.43-0.2,0.82-0.68,0.85c-0.49,0.03-0.72-0.35-0.73-0.78
	c-0.03-1.07-0.02-2.13-0.02-3.2c0-0.5,0.32-0.59,0.74-0.59c0.43,0,0.71,0.13,0.71,0.62C36.93,19.06,36.94,19.56,36.94,20.06z
	 M36.25,16.19c-1,0-1.99,0.01-2.99-0.01c-0.39-0.01-0.96,0.17-0.95-0.53c0.01-0.6,0.4-0.89,0.98-0.9c0.8-0.02,1.6-0.01,2.39-0.01
	c1.1,0,2.19,0,3.29,0c0.64,0,1.16,0.21,1.15,0.94c-0.02,0.76-0.67,0.49-1.07,0.5C38.11,16.21,37.18,16.19,36.25,16.19z M47.96,26.17
	c-0.37,1.71-1.3,2.93-2.74,3.69c-0.06,0.05-0.13,0.09-0.21,0.14c-0.59,0.34-1.34,0.53-1.58,0.05c-0.33-0.64,0.22-0.83,0.81-1.17
	c0.01-0.01,0.02-0.01,0.03-0.02l0-0.01c0.03-0.02,0.07-0.03,0.1-0.05c1.42-0.78,2.29-1.92,2.3-3.6c0.01-0.6,0.01-1.2,0-1.8
	c-0.02-0.92-0.3-1.75-0.78-2.4c0.01,0,0.01-0.01,0.02-0.01c-0.5-0.68-1.22-1.18-2.1-1.42c-0.01,0-0.03-0.01-0.04-0.01
	c-0.09-0.02-0.18-0.04-0.27-0.06c-0.04-0.01-0.08-0.02-0.12-0.02c-0.27-0.05-0.56-0.08-0.85-0.08c-1-0.01-2-0.01-3.01,0
	c-0.49,0.01-0.83-0.08-0.85-0.7c-0.01-0.66,0.34-0.78,0.88-0.76c0.5,0.02,1,0,1.68,0c0.78-0.03,1.58,0,2.35,0.16
	c0,0.01-0.01,0.01-0.01,0.02c1.32,0.29,2.43,0.92,3.21,1.84c0.01,0.01,0.01,0.01,0.02,0.02c0.04,0.05,0.08,0.1,0.11,0.14
	c0.04,0.05,0.08,0.1,0.11,0.15c0,0,0,0,0,0c0.35,0.48,0.62,1.03,0.79,1.63C48.23,23.3,48.27,24.74,47.96,26.17z"/>
</svg>
