<?xml version="1.0" encoding="utf-8"?>
<!-- Generator: Adobe Illustrator 27.2.0, SVG Export Plug-In . SVG Version: 6.00 Build 0)  -->
<svg version="1.1" id="Capa_1" xmlns="http://www.w3.org/2000/svg" xmlns:xlink="http://www.w3.org/1999/xlink" x="0px" y="0px"
	 viewBox="0 0 50 50" style="enable-background:new 0 0 50 50;" xml:space="preserve">
<style type="text/css">
	.st0{fill:#FFFFFF;}
</style>
<path class="st0" d="M48.69,42.97c-1.06,0-2.11,0-3.32,0c1.8-2.44,2.01-4.78,0.4-7.19c-0.27-0.4-0.03-0.52,0.34-0.52
	c0.81-0.01,1.63,0.01,2.44-0.01c0.62-0.02,1.36-0.01,1.38-0.87c0.02-0.86-0.72-0.86-1.34-0.91c-0.23-0.02-0.45-0.01-0.68-0.01
	c-2.44,0-4.88-0.01-7.31,0.01c-0.6,0-0.89-0.11-0.79-0.82c0.54-3.82,1.05-7.65,1.55-11.48c0.05-0.4,0.17-0.61,0.6-0.74
	c1.58-0.45,2.21-3.24,1.01-4.38c-0.24-0.23-0.53-0.42-0.86-0.42c-1.05,0.02-1.62-0.67-2.23-1.36c-0.58-0.67-1.19-1.33-1.79-1.99
	l0.01-0.01l-3.85-4.44l-0.01,0.01c-0.92-1.08-2.43-1.76-3.8-1.49c-0.84,0.16-1.28-0.09-1.66-0.74C28.55,5.21,28.26,4.85,28,4.49
	c-0.43-0.59-1-0.92-1.74-0.92c-1.23,0-2.47-0.01-3.71,0c-0.82,0.01-1.43,0.4-1.8,1.13c-0.21,0.4-0.42,0.81-0.58,1.23
	c-0.2,0.51-0.49,0.79-1.08,0.77c-1.16-0.04-1.97,0.52-2.51,1.53c-0.31,0.57-0.69,1.11-0.95,1.7c-0.43,0.98-1.1,1.56-2.2,1.65
	c-2.02,0.16-3.48,1.11-4.22,3.06c-0.23,0.6-0.69,0.86-1.34,0.97c-1.04,0.17-1.48,0.76-1.52,1.83c-0.02,0.39-0.01,0.78,0,1.17
	c0.01,0.97,0.47,1.63,1.44,1.8c0.53,0.09,0.69,0.35,0.73,0.83l0.82,6.14c0,0.01,0,0.02,0,0.03c0.23,1.67,0.43,3.35,0.7,5.01
	c0.13,0.82-0.1,1.07-0.94,1.05c-2.66-0.05-5.33-0.02-8,0c-0.57,0-1.18,0.13-1.18,0.87c0,0.74,0.6,0.86,1.17,0.88
	c0.88,0.03,1.75,0.02,2.63,0.02c0.45,0,0.61,0.15,0.33,0.59c-1.58,2.39-1.36,4.71,0.44,7.13c-1.1,0-2.01-0.02-2.91,0.01
	C0.92,43-0.05,42.72-0.05,43.81c0,1.09,0.98,0.83,1.64,0.83c9.52,0.01,19.05,0.01,28.57,0.01c0.09,0,0.19,0,0.28,0v0.02H41.9v-0.02
	c2.28,0,4.56,0,6.84,0c0.58,0,1.18-0.06,1.2-0.81C49.95,43.01,49.31,42.97,48.69,42.97z M29.94,8.35c0.69-0.67,1.73-0.52,2.48,0.17
	c0.13,0.12,0.26,0.25,0.38,0.38l3.71,4.12l0,0c0.08,0.09,0.16,0.18,0.24,0.27c0.6,0.68,1.19,1.37,1.87,2.16c-5.12,0-10.04,0-15.19,0
	C25.7,12.97,27.67,10.53,29.94,8.35z M21.87,6.33c0.19-0.43,0.28-1.03,0.87-1.05c1.13-0.05,2.27-0.1,3.4,0.01
	c0.8,0.08,0.93,1.01,1.41,1.51c0.69,0.72,0.28,1.24-0.26,1.8c-0.91,0.96-1.77,1.97-2.81,3.13c-0.33-1.11-0.61-2.03-0.87-2.96
	c-0.2-0.71-0.56-1.3-1.19-1.72C22.16,6.89,21.63,6.87,21.87,6.33z M11.07,14.78c0.36-0.67,0.8-1.12,1.58-1.3
	c3.67-0.84,3.04-0.31,5.09-3.84C18.4,8.5,20.2,7.92,21.4,8.47c0.36,0.17,0.5,0.49,0.6,0.84c0.31,1.09,0.61,2.19,0.95,3.27
	c0.14,0.45,0.03,0.76-0.24,1.15c-0.95,1.37-2.13,2.07-3.86,1.81c-0.92-0.14-1.88-0.02-2.82-0.02c-1.49,0-2.99-0.01-4.48,0
	C10.96,15.53,10.75,15.38,11.07,14.78z M8.02,18c0.03-0.43,0.17-0.68,0.62-0.68c0.19,0,0.39-0.01,0.58-0.01
	c10.46,0,20.92,0,31.38,0.01c0.39,0,0.88-0.18,1.15,0.29c0.35,0.61-0.04,1.15-0.84,1.15c-4.29,0.01-8.58,0-12.86,0
	c-1.04,0-2.08,0-3.12,0c-5.3,0-10.59,0-15.89,0C8.51,18.77,7.97,18.82,8.02,18z M10.29,21.53c-0.28-0.96,0.16-1.11,0.98-1.1
	c2.92,0.03,5.85,0.01,8.78,0.01c6.21,0,12.42,0,18.63,0c0.59,0,1.09-0.04,0.95,0.87c-0.53,3.6-1,7.2-1.46,10.81
	c-0.12,0.9-0.52,1.34-1.45,1.33c-7.87-0.01-15.73-0.01-23.6,0c-0.88,0-1.29-0.42-1.4-1.27c-0.15-1.18-0.32-2.35-0.48-3.53l0.01,0
	l-0.78-6.1c-0.01-0.14-0.03-0.28-0.05-0.42l-0.03-0.23l-0.01,0C10.33,21.78,10.32,21.65,10.29,21.53z M8.57,42.96
	c-2.1-0.02-3.85-1.77-3.86-3.84c-0.01-2.19,1.67-3.86,3.88-3.87c2.17,0,3.81,1.63,3.83,3.8C12.43,41.25,10.72,42.98,8.57,42.96z
	 M13.47,42.97c-0.53,0-0.75-0.09-0.38-0.65c1.41-2.14,1.45-4.31,0.02-6.46c-0.31-0.47-0.19-0.62,0.33-0.62c2.21,0.01,4.41,0,6.62,0
	c0.37,0,0.71,0.03,0.38,0.54c-1.58,2.41-1.37,4.76,0.42,7.18C18.26,42.97,15.86,42.96,13.47,42.97z M24.91,42.96
	c-2.15-0.01-3.84-1.76-3.83-3.95c0.02-2.13,1.7-3.76,3.87-3.76c2.17,0.01,3.83,1.66,3.83,3.8C28.78,41.24,27.06,42.97,24.91,42.96z
	 M29,42.98c1.81-2.43,1.99-4.77,0.43-7.2c-0.42-0.65,0.18-0.52,0.48-0.52c2.08-0.02,4.16-0.01,6.24-0.01c0.25,0,0.6-0.11,0.74,0.11
	c0.19,0.3-0.17,0.51-0.31,0.75c-0.98,1.65-1.11,3.34-0.43,5.14c0.22,0.57,1.04,1.13,0.71,1.57c-0.06,0.08-0.15,0.1-0.23,0.14h-6.18
	v0.02C30,42.97,29.54,42.98,29,42.98z M41.26,42.96L41.26,42.96c-2.16,0-3.83-1.73-3.81-3.95c0.02-2.14,1.69-3.77,3.86-3.76
	c2.2,0.02,3.87,1.7,3.84,3.9C45.13,41.22,43.35,42.96,41.26,42.96z"/>
</svg>
