<?xml version="1.0" encoding="utf-8"?>
<!-- Generator: Adobe Illustrator 27.2.0, SVG Export Plug-In . SVG Version: 6.00 Build 0)  -->
<svg version="1.1" id="Capa_1" xmlns="http://www.w3.org/2000/svg" xmlns:xlink="http://www.w3.org/1999/xlink" x="0px" y="0px"
	 viewBox="0 0 50 50" style="enable-background:new 0 0 50 50;" xml:space="preserve">
<style type="text/css">
	.st0{fill:#FFFFFF;}
</style>
<path class="st0" d="M37.7,26.01c1.92,0.03,3.49-1.47,3.52-3.37c0.03-1.92-1.49-3.48-3.39-3.49c-1.89-0.01-3.47,1.55-3.48,3.44
	C34.34,24.47,35.82,25.98,37.7,26.01z M37.76,20.77c1-0.01,1.88,0.82,1.91,1.82c0.03,1.04-0.87,1.96-1.89,1.94
	c-1-0.01-1.84-0.88-1.84-1.89C35.93,21.61,36.73,20.78,37.76,20.77z M6.89,19.19c2.86,0,5.71,0,8.57,0c2.92,0,5.85-0.03,8.77,0.02
	c0.97,0.02,1.29-0.32,1.28-1.29c-0.04-4.4-0.01-8.8-0.02-13.2c0-1.24-0.08-1.31-1.33-1.31c-5.75,0-11.49,0-17.24,0
	c-1.26,0-1.38,0.11-1.38,1.38c0,4.37,0,8.73,0,13.1C5.55,19.09,5.65,19.19,6.89,19.19z M14.2,5.29c0-0.2,0.16-0.37,0.37-0.37h2.03
	c0.2,0,0.37,0.16,0.37,0.37v1.67c0,0.2-0.16,0.37-0.37,0.37h-2.03c-0.2,0-0.37-0.16-0.37-0.37V5.29z M7.09,5.75
	C7.09,5.11,7.28,4.95,7.89,4.97c1.38,0.04,2.75,0.03,4.13,0c0.52-0.01,0.72,0.14,0.69,0.68c-0.04,0.74,0,1.48-0.01,2.22
	c-0.02,0.65,0.23,1.01,0.93,1c1.31-0.02,2.62-0.01,3.93,0c0.65,0.01,0.9-0.33,0.9-0.94c0-0.77,0.02-1.55-0.01-2.32
	c-0.02-0.48,0.13-0.65,0.62-0.64c1.44,0.03,2.89,0.04,4.33-0.01c0.59-0.02,0.63,0.25,0.63,0.71c-0.01,3.76-0.02,7.52,0.01,11.29
	c0,0.62-0.16,0.78-0.78,0.78c-2.55-0.04-5.11-0.02-7.66-0.02s-5.11-0.02-7.66,0.01c-0.63,0.01-0.86-0.11-0.86-0.81
	C7.13,13.2,7.13,9.48,7.09,5.75z M29.61,24.66c1.23,0.25,1.45,0.75,0.79,1.78c-0.95,1.49-0.95,1.49,0.3,2.74
	c0.14,0.14,0.29,0.29,0.43,0.43c1.09,1.09,1.09,1.09,2.33,0.24c0.9-0.61,1.46-0.4,1.71,0.63c0.45,1.87,0.45,1.87,2.43,1.87
	c0.13,0,0.27,0,0.4,0c1.48,0,1.49-0.01,1.75-1.45c0.2-1.09,0.73-1.32,1.66-0.76c0.45,0.28,0.84,0.67,1.2,0.73
	c0.53,0.05,0.78-0.12,1-0.34c0.38-0.38,0.76-0.76,1.14-1.14c0.98-0.99,0.99-1.07,0.21-2.19c-0.69-0.99-0.46-1.57,0.71-1.8
	c1.76-0.36,1.76-0.36,1.76-2.11c0-0.17,0-0.34,0-0.5c0-1.61,0-1.61-1.57-1.96c-0.95-0.21-1.2-0.75-0.7-1.54
	c1.05-1.65,1.39-1.43-0.44-3.08c-0.12-0.11-0.27-0.21-0.37-0.34c-0.66-0.82-1.32-0.81-2.15-0.18c-0.95,0.72-1.58,0.42-1.82-0.74
	c-0.36-1.76-0.36-1.76-2.12-1.76c-0.2,0-0.4,0-0.61,0c-1.5,0-1.5,0-1.82,1.49c-0.24,1.08-0.74,1.3-1.67,0.72
	c-1.57-0.99-1.57-0.99-2.91,0.35c-0.12,0.12-0.24,0.24-0.36,0.36c-1.07,1.07-1.07,1.07-0.22,2.35c0.62,0.94,0.4,1.52-0.69,1.76
	c-1.81,0.41-1.81,0.41-1.81,2.28c0,0.13,0,0.27,0,0.4C28.18,24.34,28.2,24.37,29.61,24.66z M30.51,21.67
	c1.66,0.07,1.77-1.4,2.34-2.36c0.28-0.46-0.22-0.87-0.49-1.24c-0.3-0.41-0.46-0.71,0.03-1.16c0.43-0.39,0.67-0.33,1.09-0.04
	c1.05,0.72,2.28,0.68,3.3-0.04c0.47-0.33,0.49-0.87,0.55-1.35c0.07-0.52,0.31-0.65,0.8-0.65c0.48,0,0.83,0.1,0.8,0.63
	c-0.09,1.7,1.39,1.87,2.4,2.41c0.53,0.28,0.94-0.37,1.4-0.61c0.19-0.1,0.36-0.37,0.6-0.14c0.26,0.25,0.59,0.44,0.7,0.84
	c-0.08,0.14-0.14,0.32-0.26,0.43c-1.15,1.08-0.51,2.2-0.07,3.31c0.25,0.61,0.88,0.59,1.38,0.65c0.57,0.08,0.69,0.33,0.7,0.86
	c0.01,0.54-0.23,0.68-0.68,0.77c-1.22,0.24-2.22,1.26-2.4,2.39c-0.09,0.57,0.3,0.95,0.6,1.33c0.35,0.43,0.19,0.67-0.13,1
	c-0.34,0.35-0.64,0.49-1,0.1c-1.09-1.17-2.21-0.48-3.3-0.05c-0.57,0.22-0.53,0.81-0.62,1.29c-0.09,0.52-0.25,0.8-0.89,0.79
	c-0.65,0-0.67-0.39-0.76-0.81c-0.24-1.07-1.36-2.14-2.4-2.3c-0.57-0.09-0.95,0.31-1.32,0.62c-0.44,0.37-0.67,0.17-0.99-0.14
	c-0.33-0.32-0.53-0.61-0.12-0.98c1.2-1.08,0.47-2.21,0.06-3.31c-0.23-0.62-0.89-0.58-1.39-0.65c-0.59-0.09-0.63-0.37-0.67-0.87
	C29.77,21.82,30.1,21.65,30.51,21.67z M8.44,40.8c0,1.13-0.98,2.1-2.11,2.09c-1.14-0.01-2.07-0.97-2.06-2.13
	c0.01-1.13,0.92-2.03,2.05-2.04C7.47,38.73,8.44,39.67,8.44,40.8z M36.51,40.76c0.02,1.15-0.92,2.12-2.05,2.14
	c-1.13,0.02-2.11-0.95-2.11-2.08c0-1.12,0.9-2.05,2.02-2.08C35.53,38.71,36.49,39.62,36.51,40.76z M49.9,39.71
	c-0.51-2.83-2.73-4.66-5.8-4.67c-5.85-0.03-11.7-0.03-17.54,0.02c-0.93,0.01-1.09-0.27-1.08-1.13c0.05-3.96,0.02-7.93,0.02-11.9
	c0-1.24-0.07-1.31-1.32-1.31c-5.71,0-11.43,0-17.14,0c-1.41,0-1.49,0.08-1.49,1.47c0,4-0.01,8,0.01,12c0,0.6-0.09,0.88-0.79,0.94
	c-1.05,0.09-1.98,0.6-2.78,1.31c-1.81,1.6-2.45,4.06-1.65,6.32c0.82,2.29,2.92,3.82,5.38,3.83c6.42,0.02,12.84,0.01,19.26,0.01
	c6.42,0,12.84,0.02,19.26-0.01C47.91,46.56,50.55,43.32,49.9,39.71z M14.19,22.56c0-0.19,0.15-0.34,0.34-0.34h2.07
	c0.19,0,0.34,0.15,0.34,0.34v2.52c0,0.19-0.15,0.34-0.34,0.34h-2.07c-0.19,0-0.34-0.15-0.34-0.34V22.56z M7.1,23.04
	c0-0.61,0.15-0.82,0.78-0.8c1.34,0.04,2.69,0.04,4.03,0c0.6-0.02,0.84,0.13,0.81,0.78c-0.05,0.97,0.01,1.95-0.02,2.92
	c-0.02,0.73,0.32,1.04,1.03,1.03c1.24-0.01,2.48-0.01,3.73,0c0.72,0,1.03-0.34,1.01-1.06c-0.02-1.01,0.01-2.01-0.01-3.02
	c-0.01-0.47,0.13-0.66,0.63-0.65c1.44,0.02,2.89,0.03,4.33,0c0.48-0.01,0.63,0.13,0.63,0.62c-0.02,3.83-0.02,7.66,0,11.48
	c0,0.63-0.27,0.69-0.78,0.68c-2.55-0.02-5.1-0.01-7.66-0.01c-2.55,0-5.1-0.02-7.66,0.01c-0.63,0.01-0.87-0.12-0.86-0.82
	C7.13,30.49,7.12,26.77,7.1,23.04z M44.35,45.01c-0.34,0.01-0.67,0.01-1.01,0.01c-6.12,0-12.24,0-18.35,0c-6.39,0-12.77,0-19.16,0
	c-1.74,0-3.04-0.78-3.81-2.34c-0.72-1.47-0.61-2.95,0.32-4.3c0.97-1.4,2.4-1.82,4.04-1.81c11.33,0.01,22.66,0.01,33.99,0.01
	c1.28,0,2.56-0.04,3.83,0.01c2.43,0.09,4.18,1.73,4.28,3.95C48.61,43.03,46.86,44.92,44.35,45.01z M45.81,40.83
	c-0.01,1.15-0.97,2.1-2.11,2.07c-1.1-0.02-2.04-0.97-2.05-2.07c-0.01-1.13,0.94-2.09,2.09-2.09C44.9,38.73,45.82,39.66,45.81,40.83z
	 M27.13,40.78c0.02,1.13-0.94,2.11-2.08,2.12c-1.13,0.01-2.1-0.96-2.1-2.1c0-1.11,0.92-2.05,2.04-2.07
	C26.15,38.71,27.11,39.63,27.13,40.78z M17.74,40.85c-0.03,1.1-0.98,2.04-2.08,2.04c-1.14,0-2.09-0.96-2.09-2.11
	c0-1.15,0.95-2.07,2.12-2.06C16.86,38.75,17.77,39.68,17.74,40.85z"/>
</svg>
