<?xml version="1.0" encoding="utf-8"?>
<!-- Generator: Adobe Illustrator 27.2.0, SVG Export Plug-In . SVG Version: 6.00 Build 0)  -->
<svg version="1.1" id="Capa_1" xmlns="http://www.w3.org/2000/svg" xmlns:xlink="http://www.w3.org/1999/xlink" x="0px" y="0px"
	 viewBox="0 0 50 50" style="enable-background:new 0 0 50 50;" xml:space="preserve">
<style type="text/css">
	.st0{fill:#FFFFFF;}
</style>
<path class="st0" d="M47.46,36.62c-0.51-0.63-1.18-0.99-2.02-1.08c-1.2-0.13-2.39-0.38-3.59-0.52c-0.52-0.06-0.91-0.25-1.28-0.62
	c-1.29-1.31-2.55-2.64-3.91-3.87c-0.68-0.62-0.75-1.09-0.28-1.87c0.51-0.85,0.61-2.2,1.31-2.63c0.77-0.47,2.03-0.15,3.08-0.14
	c0.9,0.01,1.31-0.39,1.3-1.31c-0.02-2.42-0.02-4.85,0-7.27c0.01-0.93-0.43-1.3-1.32-1.29c-0.85,0.02-1.71-0.03-2.55,0.01
	c-0.52,0.03-0.74-0.18-0.9-0.65c-0.3-0.89-1.07-1.86-0.89-2.6c0.2-0.82,1.26-1.43,1.95-2.13c0.02-0.02,0.05-0.05,0.07-0.07
	c0.79-0.82,0.81-1.16,0.01-1.97c-1.45-1.47-2.92-2.92-4.37-4.38c-1.58-1.58-1.66-1.65-3.12,0.02c-1.08,1.23-2.08,1.84-3.56,0.75
	c-0.2-0.15-0.48-0.21-0.73-0.26c-0.47-0.1-0.62-0.35-0.6-0.83c0.04-0.88,0-1.77,0.01-2.65c0.01-0.84-0.35-1.28-1.23-1.27
	c-2.49,0.01-4.98,0.01-7.47,0c-0.77,0-1.15,0.35-1.14,1.13c0.01,0.95-0.02,1.9,0.01,2.85c0.01,0.38-0.09,0.59-0.47,0.73
	c-0.92,0.34-1.89,1.13-2.7,0.98c-0.81-0.15-1.44-1.23-2.16-1.9c-0.07-0.07-0.14-0.14-0.21-0.21c-0.61-0.65-1.2-0.68-1.84-0.03
	C7.15,5.29,5.44,7,3.71,8.7c-0.66,0.65-0.6,1.23,0.04,1.84c0.64,0.61,1.24,1.26,1.89,1.86C5.96,12.7,6,12.94,5.8,13.33
	c-0.43,0.87-0.57,2.11-1.25,2.56c-0.7,0.45-1.9,0.13-2.88,0.15c-0.1,0-0.2,0-0.29,0c-0.85,0-1.25,0.42-1.24,1.28
	c0.02,1.21,0,2.42,0,3.64c0,1.21,0.01,2.42,0,3.64c-0.01,0.85,0.36,1.28,1.23,1.27c0.92-0.01,1.83,0,2.75,0
	c0.35,0,0.59,0.05,0.74,0.45c0.33,0.92,1.12,1.85,1.03,2.7c-0.09,0.87-1.26,1.42-1.91,2.14c-0.07,0.07-0.14,0.14-0.21,0.21
	c-0.73,0.76-0.74,1.16,0,1.9c1.32,1.32,2.65,2.63,3.96,3.96c2.14,2.15,1.95,2.2,4.05-0.03c0.82-0.87,1.51-1.3,2.6-0.51
	c0.36,0.26,0.83,0.39,1.27,0.49c0.49,0.11,0.6,0.38,0.58,0.84c-0.03,0.92,0,1.83-0.01,2.75c-0.01,0.76,0.34,1.16,1.12,1.16
	c2.52,0,5.04,0,7.57,0c0.73,0,1.09-0.39,1.11-1.09c0.02-0.72,0.08-1.45-0.01-2.16c-0.12-0.97,0.15-1.53,1.17-1.71
	c1.1-0.19,2.01-1.53,3.04-1.12c0.98,0.39,1.58,1.63,2.49,2.32c2.12,1.6,3.05,3.62,2.59,6.26c-0.13,0.78,0.23,1.38,0.78,1.91
	c0.96,0.94,2.09,1.69,3.07,2.6c1,0.92,2.11,1.18,3.41,1.06c1.07-0.1,1.44-0.72,0.91-1.66c-0.5-0.88-1.04-1.74-1.54-2.62
	c-0.57-0.99-0.23-1.95,0.93-2.7c1.17-0.76,1.88-0.69,2.61,0.35c0.64,0.91,1.21,1.86,1.79,2.81c0.23,0.38,0.48,0.69,0.98,0.69
	c0.55,0,0.82-0.36,1.01-0.79c0.15-0.33,0.3-0.66,0.38-1.01C50.31,41.88,49.46,39.09,47.46,36.62z M25.26,35.54
	c-0.91,0.22-1.23,0.71-1.17,1.61c0.05,0.75-0.01,1.51,0.02,2.26c0.02,0.42-0.11,0.57-0.55,0.56c-1.6-0.02-3.21-0.03-4.81,0
	c-0.47,0.01-0.62-0.14-0.61-0.61c0.03-0.82,0-1.64,0.01-2.46c0.01-0.68-0.26-1.12-0.94-1.29c-1.31-0.32-2.54-0.83-3.71-1.51
	c-0.56-0.33-1.05-0.29-1.5,0.2c-0.07,0.07-0.14,0.14-0.21,0.21c-0.71,0.61-1.25,1.83-2.05,1.78c-0.7-0.05-1.33-1.14-1.98-1.78
	c-0.61-0.6-1.19-1.22-1.81-1.8c-0.31-0.29-0.33-0.47-0.01-0.77c0.62-0.58,1.2-1.21,1.82-1.8c0.5-0.48,0.59-0.98,0.23-1.58
	c-0.71-1.18-1.23-2.45-1.58-3.78c-0.15-0.59-0.53-0.86-1.14-0.85c-0.82,0.01-1.64-0.03-2.46,0.01c-0.53,0.02-0.75-0.11-0.73-0.69
	c0.04-1.54,0.04-3.08,0-4.62c-0.02-0.59,0.21-0.71,0.74-0.69c0.78,0.04,1.57-0.01,2.36,0.01c0.69,0.02,1.09-0.26,1.26-0.95
	c0.32-1.27,0.81-2.48,1.5-3.61c0.39-0.63,0.31-1.15-0.24-1.65c-0.58-0.53-1.1-1.12-1.68-1.66C5.66,9.77,5.58,9.56,5.98,9.18
	c1.14-1.08,2.25-2.2,3.33-3.34c0.39-0.41,0.61-0.3,0.93,0.05c0.56,0.6,1.16,1.16,1.73,1.74c0.45,0.46,0.92,0.57,1.49,0.23
	c1.18-0.71,2.44-1.24,3.78-1.58c0.67-0.17,0.96-0.61,0.94-1.3c-0.02-0.79,0.02-1.57-0.01-2.36c-0.02-0.47,0.05-0.71,0.62-0.69
	c1.57,0.04,3.14,0.03,4.72,0c0.48-0.01,0.62,0.15,0.6,0.61C24.07,3.37,24.12,4.19,24.09,5c-0.03,0.7,0.27,1.12,0.94,1.28
	c1.31,0.32,2.54,0.84,3.7,1.53c0.61,0.37,1.1,0.26,1.57-0.25c0.54-0.57,1.13-1.1,1.66-1.68c0.35-0.38,0.58-0.49,1-0.05
	c1.08,1.14,2.2,2.25,3.33,3.34c0.36,0.34,0.31,0.54-0.01,0.84c-0.59,0.56-1.14,1.17-1.74,1.74c-0.53,0.5-0.63,1-0.24,1.65
	c0.67,1.13,1.17,2.34,1.49,3.61c0.17,0.67,0.57,0.98,1.28,0.95c0.78-0.03,1.57,0.02,2.36-0.02c0.51-0.02,0.78,0.08,0.76,0.68
	c-0.04,1.54-0.04,3.08,0,4.62c0.01,0.6-0.23,0.72-0.76,0.69c-0.72-0.03-1.44,0.04-2.16-0.02c-0.93-0.07-1.36,0.36-1.56,1.23
	c-0.25,1.05-0.67,2.04-1.28,3.07c-0.97-0.98-1.9-1.93-2.86-2.86c0,0,0,0,0,0l-2.35-2.33c-0.01-0.01-0.02-0.02-0.03-0.03l-0.02-0.02
	l0-0.01c-0.48-0.5-0.71-1.11-0.75-1.87c-0.05-1.01-0.26-2.01-0.4-3.01c-0.11-0.81-0.46-1.51-1.09-2.03c-2.48-2.06-5.3-2.9-8.49-2.22
	c-0.41,0.09-0.81,0.27-1.17,0.48c-0.83,0.48-0.85,1.25-0.04,1.78c0.9,0.59,1.84,1.12,2.74,1.73c1.24,0.84,1.37,1.51,0.61,2.7
	c-0.82,1.29-1.77,1.58-2.94,0.89c-0.84-0.5-1.67-1.03-2.53-1.5c-0.83-0.45-1.5-0.06-1.58,0.88c-0.1,1.23,0.02,2.35,0.96,3.35
	c0.98,1.05,1.77,2.27,2.78,3.3c0.48,0.49,1.02,0.75,1.75,0.69c0.78-0.07,1.57,0.05,2.36,0c0.92-0.06,1.64,0.2,2.2,0.86l0.03,0
	l2.01,2.23l0,0c0.21,0.06,0.41,0.19,0.62,0.42c0.77,0.84,1.6,1.62,2.44,2.45C27.54,34.78,26.43,35.26,25.26,35.54z M41.83,41.36
	c-2.23,1.47-2.55,3.26-1.09,6.08c-0.65-0.31-2.79-2.02-3.24-2.51c-0.24-0.26-0.24-0.54-0.2-0.82c0.45-3.07-0.84-5.26-3.12-7.3
	c-3.46-3.1-6.63-6.52-9.91-9.82c-0.45-0.45-0.91-0.68-1.55-0.67c-0.65,0.01-1.32-0.18-1.96-0.09c-1.67,0.24-2.79-0.47-3.65-1.82
	c-0.29-0.46-0.68-0.87-1.26-1.58c3.43,1.8,5.64,0.71,6.84-2.45c0.9-2.35-0.78-3.59-2.47-4.75c2.02,0.02,3.83,0.58,5.35,1.91
	c0.28,0.25,0.41,0.57,0.46,0.95c0.13,1.04,0.32,2.07,0.4,3.11c0.1,1.15,0.52,2.05,1.38,2.89c3.92,3.81,7.78,7.69,11.65,11.56
	c0.46,0.46,0.94,0.74,1.61,0.81c1.27,0.13,2.53,0.35,3.79,0.52c0.36,0.05,0.72,0.1,0.98,0.38c1.44,1.5,2.03,3.32,2.07,5.52
	C45.48,40.25,44.12,39.85,41.83,41.36z"/>
</svg>
