<?xml version="1.0" encoding="utf-8"?>
<!-- Generator: Adobe Illustrator 27.2.0, SVG Export Plug-In . SVG Version: 6.00 Build 0)  -->
<svg version="1.1" id="Capa_1" xmlns="http://www.w3.org/2000/svg" xmlns:xlink="http://www.w3.org/1999/xlink" x="0px" y="0px"
	 viewBox="0 0 500 500" style="enable-background:new 0 0 500 500;" xml:space="preserve">
<style type="text/css">
	.st0{fill:#F29102;}
	.st1{fill:none;stroke:#FFFFFF;stroke-width:0.576;stroke-miterlimit:10;}
	.st2{fill:#FFFFFF;}
</style>
<g id="Circulos_naranjas_00000176038036892075683120000009365283721140374914_">
	<g>
		<g>
			<circle class="st0" cx="250" cy="30.1" r="30.1"/>
		</g>
		<g>
			<circle class="st0" cx="405.49" cy="94.51" r="30.1"/>
		</g>
		<g>
			<circle class="st0" cx="469.9" cy="250" r="30.1"/>
		</g>
		<g>
			<circle class="st0" cx="405.49" cy="405.49" r="30.1"/>
		</g>
		<g>
			<circle class="st0" cx="250" cy="469.9" r="30.1"/>
		</g>
		<g>
			<circle class="st0" cx="94.51" cy="405.49" r="30.1"/>
		</g>
		<g>
			<circle class="st0" cx="30.1" cy="250" r="30.1"/>
		</g>
		<g>
			<circle class="st0" cx="94.51" cy="94.51" r="30.1"/>
		</g>
		<g>
			<circle class="st0" cx="250" cy="30.1" r="30.1"/>
		</g>
	</g>
	<g>
		<g>
			<path class="st1" d="M381.02,69.52l-17.24,2l5.42-5.47c-25.52-16.13-51.66-26.9-82.59-32.08l1.25-9.36
				c29.48,4.41,67.5,19.89,86.85,34.03l3.77-4.84L381.02,69.52z"/>
		</g>
		<g>
			<path class="st1" d="M470.32,215.05l-13.61-10.78l7.7-0.04c-6.64-29.45-17.51-55.55-35.72-81.08l7.5-5.73
				c17.73,23.96,33.66,61.79,37.35,85.48l6.09-0.76L470.32,215.05z"/>
		</g>
		<g>
			<path class="st1" d="M430.55,381.1l-2-17.24l5.47,5.42c16.13-25.52,26.9-51.66,32.08-82.59l9.36,1.25
				c-4.41,29.48-19.89,67.5-34.03,86.85l4.84,3.77L430.55,381.1z"/>
		</g>
		<g>
			<path class="st1" d="M285.02,470.39l10.78-13.61l0.04,7.7c29.45-6.64,55.55-17.51,81.08-35.72l5.73,7.5
				c-23.96,17.73-61.79,33.66-85.48,37.35l0.76,6.09L285.02,470.39z"/>
		</g>
		<g>
			<path class="st1" d="M118.98,430.63l17.24-2l-5.42,5.47c25.52,16.13,51.66,26.9,82.59,32.08l-1.25,9.36
				c-29.48-4.41-67.5-19.89-86.85-34.03l-3.77,4.84L118.98,430.63z"/>
		</g>
		<g>
			<path class="st1" d="M29.68,285.1l13.61,10.78l-7.7,0.04c6.64,29.45,17.51,55.55,35.72,81.08l-7.5,5.73
				c-17.73-23.96-33.66-61.79-37.35-85.48l-6.09,0.76L29.68,285.1z"/>
		</g>
		<g>
			<path class="st1" d="M69.45,119.05l2,17.24l-5.47-5.42c-16.13,25.52-26.9,51.66-32.08,82.59l-9.36-1.25
				c4.41-29.48,19.89-67.5,34.03-86.85l-4.84-3.77L69.45,119.05z"/>
		</g>
		<g>
			<path class="st1" d="M214.98,29.76L204.2,43.36l-0.04-7.7c-29.45,6.64-55.55,17.51-81.08,35.72l-5.73-7.5
				c23.96-17.73,61.79-33.66,85.48-37.35l-0.76-6.09L214.98,29.76z"/>
		</g>
		<g>
			<path class="st1" d="M381.02,69.52l-17.24,2l5.42-5.47c-25.52-16.13-51.66-26.9-82.59-32.08l1.25-9.36
				c29.48,4.41,67.5,19.89,86.85,34.03l3.77-4.84L381.02,69.52z"/>
		</g>
	</g>
</g>
<g id="Flechas_00000075871534137800760110000009674862405171698329_">
	<path class="st2" d="M255.43,35.12v2.98h-11.5v-2.98h4.27V24.61c-0.18,0.24-0.46,0.49-0.84,0.75c-0.38,0.26-0.81,0.51-1.28,0.74
		c-0.47,0.23-0.95,0.42-1.43,0.56c-0.48,0.14-0.92,0.21-1.32,0.21v-3.1c0.4,0,0.86-0.12,1.38-0.36c0.52-0.24,1.04-0.53,1.55-0.86
		c0.51-0.33,0.95-0.65,1.31-0.96c0.36-0.31,0.57-0.54,0.63-0.68h3.4v14.21H255.43z"/>
	<path class="st2" d="M397.91,102.76c0-0.85,0.07-1.64,0.21-2.36c0.14-0.72,0.39-1.41,0.74-2.06c0.35-0.65,0.84-1.26,1.48-1.84
		c0.63-0.58,1.44-1.13,2.42-1.66c0.7-0.41,1.36-0.77,1.99-1.08c0.62-0.31,1.17-0.63,1.66-0.94c0.48-0.31,0.86-0.65,1.13-1.02
		c0.27-0.37,0.41-0.78,0.41-1.25c0-0.45-0.12-0.87-0.36-1.27c-0.24-0.39-0.6-0.71-1.08-0.94c-0.48-0.24-1.06-0.36-1.75-0.36
		c-0.54,0-1.04,0.07-1.49,0.21c-0.45,0.14-0.86,0.33-1.23,0.56c-0.37,0.23-0.71,0.48-1.01,0.75c-0.3,0.27-0.56,0.54-0.78,0.8
		l-2.08-2.38c0.2-0.24,0.52-0.52,0.95-0.83c0.43-0.31,0.95-0.62,1.56-0.93c0.61-0.31,1.31-0.57,2.09-0.78
		c0.78-0.21,1.64-0.32,2.56-0.32c1.3,0,2.42,0.22,3.34,0.66c0.92,0.44,1.63,1.04,2.12,1.8c0.49,0.76,0.74,1.62,0.74,2.57
		c0,0.75-0.15,1.42-0.44,1.99c-0.29,0.57-0.67,1.08-1.13,1.51c-0.46,0.44-0.95,0.81-1.46,1.13c-0.51,0.32-0.99,0.6-1.43,0.84
		c-0.78,0.39-1.46,0.74-2.03,1.07c-0.57,0.33-1.06,0.65-1.46,0.96c-0.4,0.32-0.73,0.64-0.99,0.98c-0.26,0.34-0.48,0.74-0.66,1.21
		h9.93v2.98H397.91z"/>
	<path class="st2" d="M471.65,248.73c0.84,0.14,1.58,0.47,2.21,0.97c0.63,0.5,1.12,1.14,1.46,1.9c0.34,0.77,0.51,1.63,0.51,2.59
		c0,1.27-0.31,2.37-0.92,3.31c-0.61,0.94-1.48,1.67-2.6,2.19c-1.12,0.52-2.45,0.78-3.97,0.78c-1.52,0-2.87-0.27-4.03-0.8
		c-1.16-0.53-2.1-1.3-2.8-2.3l2.02-2.29c0.48,0.72,1.1,1.3,1.87,1.73c0.76,0.43,1.73,0.65,2.89,0.65c1.3,0,2.32-0.29,3.04-0.87
		c0.72-0.58,1.08-1.45,1.08-2.6c0-1.2-0.4-2.14-1.19-2.82c-0.79-0.68-1.98-1.02-3.57-1.02h-0.81v-2.59h0.9
		c1.34,0,2.38-0.32,3.1-0.97c0.72-0.65,1.08-1.47,1.08-2.45c0-0.66-0.15-1.2-0.44-1.62c-0.29-0.42-0.7-0.73-1.22-0.94
		c-0.52-0.21-1.12-0.31-1.81-0.31c-1.02,0-1.93,0.22-2.71,0.66s-1.4,1.07-1.87,1.9l-2.08-2.26c0.4-0.64,0.95-1.2,1.66-1.69
		c0.7-0.48,1.51-0.86,2.42-1.13c0.91-0.27,1.88-0.41,2.91-0.41c1.32,0,2.49,0.22,3.49,0.67c1,0.45,1.78,1.08,2.33,1.89
		c0.55,0.81,0.83,1.77,0.83,2.87c0,0.79-0.15,1.54-0.45,2.25c-0.3,0.7-0.74,1.29-1.32,1.77
		C473.08,248.27,472.41,248.58,471.65,248.73z"/>
	<path class="st2" d="M405.27,415.4v-4.79h-9.24v-2.95l10.29-13.28h2.26v13.21h2.65v3.01h-2.65v4.79H405.27z M399.4,407.6h6.23
		v-8.16L399.4,407.6z"/>
	<path class="st2" d="M249.72,480.14c-1.55,0-2.93-0.35-4.15-1.04c-1.22-0.69-2.16-1.63-2.8-2.81l1.99-1.9
		c0.56,0.86,1.28,1.55,2.17,2.06c0.88,0.51,1.83,0.77,2.83,0.77c0.82,0,1.55-0.18,2.2-0.53c0.64-0.35,1.15-0.84,1.52-1.47
		c0.37-0.63,0.56-1.36,0.56-2.18c0-0.8-0.18-1.51-0.54-2.12c-0.36-0.61-0.84-1.08-1.44-1.41c-0.6-0.33-1.29-0.5-2.08-0.5
		c-0.76,0-1.47,0.17-2.14,0.51c-0.66,0.34-1.2,0.82-1.63,1.45h-2.92l2.44-12.49h10.44v3.04h-8.04l-1.08,5.84
		c0.34-0.36,0.8-0.66,1.38-0.89c0.58-0.23,1.24-0.35,1.99-0.35c1.34,0,2.54,0.3,3.6,0.89c1.05,0.59,1.89,1.4,2.5,2.42
		c0.61,1.02,0.92,2.21,0.92,3.55c0,1.42-0.34,2.67-1.02,3.75c-0.68,1.07-1.61,1.91-2.77,2.51
		C252.47,479.84,251.16,480.14,249.72,480.14z"/>
	<path class="st2" d="M100.65,412.13c-0.67,1.12-1.6,2.02-2.77,2.68c-1.17,0.66-2.48,0.99-3.93,0.99c-1.57,0-2.94-0.38-4.11-1.13
		c-1.17-0.75-2.09-1.84-2.74-3.27c-0.65-1.42-0.98-3.12-0.98-5.09c0-2.73,0.34-5.01,1.01-6.83c0.67-1.83,1.62-3.2,2.84-4.12
		c1.22-0.92,2.66-1.39,4.3-1.39c1.36,0,2.61,0.32,3.75,0.95c1.13,0.63,2.05,1.51,2.75,2.63l-1.96,2.05c-0.46-0.84-1.1-1.51-1.91-2
		c-0.81-0.49-1.71-0.74-2.69-0.74c-0.98,0-1.85,0.29-2.6,0.86c-0.75,0.57-1.34,1.4-1.75,2.48c-0.41,1.08-0.63,2.4-0.65,3.94
		c0.3-0.6,0.7-1.12,1.19-1.55c0.49-0.43,1.07-0.77,1.73-1.01c0.66-0.24,1.36-0.36,2.11-0.36c1.4,0,2.66,0.32,3.78,0.96
		c1.11,0.64,2,1.5,2.65,2.57c0.65,1.07,0.98,2.28,0.98,3.63C101.66,409.77,101.32,411.01,100.65,412.13z M96.22,412.36
		c0.69-0.41,1.24-0.97,1.66-1.67c0.41-0.7,0.62-1.46,0.62-2.29c0-0.82-0.21-1.58-0.62-2.26c-0.41-0.68-0.96-1.23-1.64-1.64
		c-0.68-0.41-1.44-0.62-2.29-0.62c-0.8,0-1.56,0.21-2.26,0.62c-0.7,0.41-1.26,0.96-1.67,1.64s-0.62,1.43-0.62,2.26
		c0,0.82,0.21,1.58,0.63,2.27c0.42,0.69,0.98,1.25,1.67,1.67c0.69,0.42,1.44,0.63,2.24,0.63C94.77,412.98,95.53,412.77,96.22,412.36
		z"/>
	<path class="st2" d="M32.01,243.84H21.66v-3.04h15.59l-10.69,21.01H22.8L32.01,243.84z"/>
	<path class="st2" d="M101.54,98.32c0,1.29-0.35,2.41-1.04,3.38c-0.69,0.97-1.63,1.72-2.8,2.25s-2.45,0.8-3.84,0.8
		c-1.43,0-2.71-0.29-3.85-0.86c-1.14-0.57-2.06-1.35-2.74-2.34c-0.68-0.99-1.02-2.11-1.02-3.38c0-0.84,0.19-1.6,0.57-2.28
		c0.38-0.67,0.85-1.25,1.41-1.74c0.56-0.48,1.13-0.85,1.72-1.12c-0.54-0.26-1.04-0.6-1.49-1.01c-0.45-0.41-0.81-0.89-1.08-1.43
		c-0.27-0.54-0.41-1.13-0.41-1.75c0-0.92,0.21-1.75,0.62-2.46c0.41-0.71,0.96-1.32,1.64-1.81c0.68-0.49,1.43-0.86,2.24-1.12
		c0.81-0.25,1.62-0.38,2.42-0.38c0.82,0,1.64,0.13,2.45,0.38c0.81,0.25,1.57,0.62,2.26,1.1c0.69,0.48,1.24,1.08,1.66,1.8
		c0.41,0.71,0.62,1.53,0.62,2.46c0,0.62-0.14,1.21-0.41,1.77c-0.27,0.55-0.64,1.04-1.11,1.46c-0.47,0.42-0.98,0.76-1.52,1
		c0.64,0.28,1.25,0.67,1.82,1.18c0.57,0.5,1.03,1.1,1.37,1.78C101.37,96.68,101.54,97.46,101.54,98.32z M98.2,98.11
		c0-0.58-0.13-1.11-0.38-1.57c-0.25-0.46-0.59-0.85-1.01-1.16c-0.42-0.31-0.88-0.55-1.38-0.71c-0.5-0.16-1.01-0.24-1.53-0.24
		c-0.74,0-1.44,0.15-2.08,0.45c-0.64,0.3-1.16,0.73-1.57,1.28c-0.4,0.55-0.6,1.2-0.6,1.95c0,0.56,0.12,1.07,0.36,1.53
		c0.24,0.45,0.57,0.84,0.98,1.16c0.41,0.32,0.87,0.56,1.38,0.73c0.51,0.16,1.03,0.24,1.55,0.24c0.72,0,1.41-0.16,2.06-0.47
		c0.65-0.31,1.18-0.74,1.6-1.3C97.99,99.45,98.2,98.82,98.2,98.11z M90.31,88.96c0,0.62,0.18,1.16,0.54,1.6
		c0.36,0.44,0.82,0.78,1.38,1c0.56,0.22,1.11,0.33,1.66,0.33c0.56,0,1.12-0.12,1.67-0.35c0.55-0.23,1.01-0.57,1.38-1.01
		c0.37-0.44,0.56-0.99,0.56-1.63c0-0.58-0.17-1.09-0.51-1.53c-0.34-0.43-0.79-0.77-1.34-1c-0.55-0.23-1.14-0.35-1.76-0.35
		c-0.62,0-1.21,0.12-1.76,0.36c-0.55,0.24-0.99,0.58-1.32,1.01C90.48,87.84,90.31,88.36,90.31,88.96z"/>
</g>
</svg>
