<?xml version="1.0" encoding="utf-8"?>
<!-- Generator: Adobe Illustrator 27.2.0, SVG Export Plug-In . SVG Version: 6.00 Build 0)  -->
<svg version="1.1" id="Capa_1" xmlns="http://www.w3.org/2000/svg" xmlns:xlink="http://www.w3.org/1999/xlink" x="0px" y="0px"
	 viewBox="0 0 713.76 500.08" style="enable-background:new 0 0 713.76 500.08;" xml:space="preserve">
<style type="text/css">
@import url('https://fonts.googleapis.com/css2?family=Raleway:ital,wght@0,100..900;1,100..900&display=swap');
	.st0{fill:none;}
	.st1{fill:#FFFFFF;}
	.st2{font-family:'Raleway';}
	.st3{font-size:16.1399px;}
</style>
<g id="Texto">
	<rect x="231.66" y="0" class="st0" width="179.31" height="36.83"/>
	<text transform="matrix(1 0 0 1 254.8378 13.5093)"><tspan x="0" y="0" class="st1 st2 st3">Relevamiento de las  </tspan><tspan x="-10.52" y="19.37" class="st1 st2 st3">necesidades del cliente</tspan></text>
	<rect x="231.66" y="463.17" class="st0" width="179.31" height="36.83"/>
	<text transform="matrix(1 0 0 1 253.4574 476.6777)"><tspan x="0" y="0" class="st1 st2 st3">Controles de calidad </tspan><tspan x="9.66" y="19.37" class="st1 st2 st3">previo-embarque</tspan></text>
	<rect x="487.63" y="106.53" class="st0" width="168.79" height="36.83"/>
	<text transform="matrix(1 0 0 1 501.0224 120.0391)"><tspan x="0" y="0" class="st1 st2 st3">Búsqueda y selección  </tspan><tspan x="24.13" y="19.37" class="st1 st2 st3">del proveedor</tspan></text>
	<rect x="538.97" y="231.58" class="st0" width="174.79" height="36.83"/>
	<text transform="matrix(1 0 0 1 590.578 245.0942)"><tspan x="0" y="0" class="st1 st2 st3">Gestión de </tspan><tspan x="-39.35" y="19.37" class="st1 st2 st3">muestras del producto</tspan></text>
	<rect x="487.17" y="356.64" class="st0" width="101.28" height="36.83"/>
	<text transform="matrix(1 0 0 1 492.8358 370.1484)"><tspan x="0" y="0" class="st1 st2 st3">Confirmación</tspan><tspan x="9.14" y="19.37" class="st1 st2 st3">del pedido</tspan></text>
	<rect y="106.53" class="st0" width="156.36" height="36.83"/>
	<text transform="matrix(1 0 0 1 11.1049 120.0391)"><tspan x="0" y="0" class="st1 st2 st3">Entrega en depósito </tspan><tspan x="32.71" y="19.37" class="st1 st2 st3">del cliente</tspan></text>
	<rect x="24.96" y="231.58" class="st0" width="79.6" height="36.83"/>
	<text transform="matrix(1 0 0 1 29.9242 245.0942)"><tspan x="0" y="0" class="st1 st2 st3">Liberación</tspan><tspan x="3.35" y="19.37" class="st1 st2 st3">aduanera </tspan></text>
	<rect x="57.59" y="356.64" class="st0" width="98.77" height="36.83"/>
	<text transform="matrix(1 0 0 1 70.8217 370.1484)"><tspan x="0" y="0" class="st1 st2 st3">Transporte  </tspan><tspan x="-7.56" y="19.37" class="st1 st2 st3">internacional</tspan></text>
</g>
</svg>
