<?xml version="1.0" encoding="utf-8"?>
<!-- Generator: Adobe Illustrator 27.2.0, SVG Export Plug-In . SVG Version: 6.00 Build 0)  -->
<svg version="1.1" id="Capa_1" xmlns="http://www.w3.org/2000/svg" xmlns:xlink="http://www.w3.org/1999/xlink" x="0px" y="0px"
	 viewBox="0 0 50 50" style="enable-background:new 0 0 50 50;" xml:space="preserve">
<style type="text/css">
	.st0{fill:#FFFFFF;}
</style>
<g>
	<path class="st0" d="M40.9,5.7l6.6,4.8L23,44.3L2.5,29.4l4.2-5.8l13.9,10.1L40.9,5.7 M40.9,3.2c-0.8,0-1.5,0.4-2,1L20,30.2
		L8.2,21.6c-0.4-0.3-0.9-0.5-1.5-0.5c-0.1,0-0.3,0-0.4,0c-0.7,0.1-1.2,0.5-1.6,1l-4.2,5.8C-0.3,29-0.1,30.6,1,31.4l20.5,14.9
		c0.4,0.3,0.9,0.5,1.5,0.5c0.1,0,0.3,0,0.4,0c0.7-0.1,1.2-0.5,1.6-1L49.5,12c0.4-0.5,0.6-1.2,0.4-1.9c-0.1-0.7-0.5-1.2-1-1.6
		l-6.6-4.8C41.9,3.4,41.4,3.2,40.9,3.2L40.9,3.2z"/>
</g>
</svg>
